<?xml version="1.0" standalone="no"?>
<!DOCTYPE svg PUBLIC "-//W3C//DTD SVG 20010904//EN"
 "http://www.w3.org/TR/2001/REC-SVG-20010904/DTD/svg10.dtd">
<svg version="1.0" xmlns="http://www.w3.org/2000/svg"
 width="1400.000000pt" height="800.000000pt" viewBox="0 0 1400.000000 800.000000"
 preserveAspectRatio="xMidYMid meet">

<g transform="translate(0.000000,800.000000) scale(0.100000,-0.100000)"
fill="#000000" stroke="none">
<path d="M4455 5986 c-37 -16 -70 -52 -84 -89 -7 -19 -11 -214 -11 -583 l0
-554 80 0 80 0 2 318 c2 257 6 316 16 314 8 -1 11 2 8 7 -3 5 1 14 9 21 12 10
15 10 15 -3 0 -15 34 -30 44 -19 3 3 6 14 6 24 0 10 6 18 14 18 8 0 22 3 32 7
13 5 15 3 9 -8 -8 -12 -6 -12 8 0 16 12 17 12 11 -5 -5 -16 -4 -16 5 -4 11 16
15 17 69 19 18 0 31 5 28 10 -3 5 -16 7 -29 4 -17 -3 -18 -2 -7 5 16 10 56 10
66 -1 3 -3 14 -2 23 3 13 7 93 32 111 35 3 0 10 4 17 8 6 4 19 4 30 1 13 -4
15 -3 4 4 -8 6 -9 12 -3 16 6 3 13 2 17 -4 10 -16 95 3 95 21 0 5 7 9 15 9 8
0 15 -6 15 -12 0 -10 2 -10 8 0 5 7 16 10 25 6 11 -4 17 -1 17 9 0 22 53 38
90 27 19 -5 28 -5 25 1 -4 5 -13 9 -21 9 -8 0 -14 5 -14 12 0 6 3 8 7 5 3 -4
13 -1 21 6 13 10 14 9 7 -2 -6 -11 -4 -13 11 -7 41 17 56 18 66 5 8 -11 9 -10
4 4 -5 14 -1 16 24 12 18 -3 34 1 44 11 9 8 16 11 16 6 0 -5 9 -12 19 -15 13
-3 18 0 15 8 -7 16 31 26 45 12 13 -13 43 21 34 37 -4 5 -1 6 6 2 6 -4 8 -13
5 -19 -4 -7 -4 -9 1 -5 4 4 16 3 26 -3 15 -7 19 -6 19 5 0 8 -6 16 -12 19 -7
2 -1 2 14 0 18 -3 35 3 50 17 12 11 28 18 35 16 9 -4 13 6 14 32 0 30 2 33 9
17 5 -11 9 -266 9 -566 1 -433 -2 -548 -12 -552 -27 -10 -303 12 -347 28 -46
17 -56 17 -269 -1 -67 -6 -89 -12 -112 -31 -16 -14 -29 -29 -29 -35 0 -12 -58
-68 -71 -68 -5 0 -10 -158 -12 -352 l-2 -353 -3 423 -2 424 -29 29 -29 29
-1142 0 -1142 0 -29 -29 -29 -29 0 -1504 0 -1504 21 -23 c30 -31 50 -37 174
-50 157 -15 2529 -25 2556 -10 11 6 39 29 62 51 l42 40 6 302 c4 165 7 392 8
504 l1 202 2115 0 2115 0 0 69 c0 54 4 70 16 75 9 3 578 6 1265 6 l1249 0 0
-380 0 -380 -1985 0 -1985 0 0 60 0 60 -86 0 c-74 0 -85 -2 -80 -16 3 -9 6
-86 6 -172 0 -86 4 -163 8 -170 11 -16 4270 -18 4286 -2 8 8 11 434 11 1388
l0 1377 -23 36 c-45 74 57 69 -1386 69 l-1296 0 0 583 c0 656 3 629 -76 674
l-39 23 -2505 -1 c-2065 0 -2510 -2 -2535 -13z m4985 -778 l0 -633 -25 -1
c-16 -1 -25 3 -25 12 0 12 -4 13 -22 3 -22 -12 -49 -16 -140 -21 -27 -2 -48
-6 -48 -9 0 -3 -11 -4 -24 -2 -32 7 -117 -23 -93 -32 9 -4 17 -14 17 -22 0 -8
-5 -11 -10 -8 -6 4 -16 2 -23 -4 -8 -6 -18 -6 -27 -1 -8 6 -19 10 -25 10 -5 0
-4 -4 4 -9 21 -14 -66 -54 -144 -67 -5 -1 -36 -2 -67 -3 -53 -1 -58 -3 -58
-23 -1 -21 -2 -21 -11 -5 -8 14 -14 15 -24 7 -8 -6 -29 -12 -48 -13 -23 -1
-33 -6 -30 -14 3 -7 0 -13 -6 -13 -6 0 -11 6 -11 13 -1 6 -8 3 -18 -9 -11 -12
-28 -20 -42 -19 -14 1 -35 -5 -47 -13 -19 -12 -23 -12 -23 -1 0 11 -2 11 -8 1
-5 -7 -16 -10 -25 -6 -10 3 -17 1 -17 -6 0 -6 -12 -11 -27 -9 -27 2 -40 -1
-91 -22 -13 -5 -32 -9 -42 -9 -11 0 -20 -4 -20 -10 0 -5 -8 -10 -17 -10 -13 0
-14 -3 -5 -12 18 -18 14 -28 -11 -28 -29 0 -40 10 -28 24 7 8 -22 12 -99 14
-101 3 -110 1 -120 -18 -16 -29 -27 -25 -77 25 -24 25 -50 45 -57 45 -8 0 -19
6 -25 14 -7 8 -25 18 -41 21 -31 7 -34 14 -45 84 -9 54 -35 81 -78 81 -18 0
-42 7 -53 15 -10 8 -35 15 -54 15 -20 0 -46 7 -59 16 -17 12 -35 15 -69 11
-58 -8 -92 16 -101 70 l-6 35 -125 -1 c-69 0 -228 -8 -355 -18 -126 -9 -242
-13 -257 -10 l-28 7 0 459 c0 252 3 519 7 594 l6 135 1449 2 1448 1 0 -633z
m-3287 559 c9 -4 22 -18 27 -32 11 -28 28 -33 36 -10 4 8 10 13 15 10 4 -3 1
-14 -8 -25 -12 -14 -20 -16 -29 -9 -9 8 -17 3 -28 -19 -17 -32 -10 -43 39 -70
16 -9 17 -11 4 -12 -9 0 -27 9 -41 20 l-25 19 -34 -37 c-19 -20 -30 -33 -25
-29 9 7 36 -10 36 -23 0 -4 -11 -7 -25 -7 -13 0 -22 3 -20 8 3 4 0 11 -6 14
-7 5 -1 18 18 37 22 23 25 31 14 38 -8 4 -21 5 -30 2 -13 -5 -14 -3 -3 10 7 9
11 34 9 62 -3 26 0 49 4 52 5 3 9 -1 9 -8 0 -8 6 -23 14 -33 12 -17 15 -17 29
-3 14 14 14 17 -3 36 -10 11 -16 23 -13 26 4 4 9 3 12 -2 3 -5 14 -11 24 -15z
m33 -204 c-3 -6 0 -14 7 -17 7 -2 4 -5 -5 -5 -9 -1 -22 7 -27 17 -10 16 -10
16 -11 0 0 -24 -16 -23 -23 2 -4 17 -1 20 29 17 22 -1 32 -6 30 -14z m-299
-101 c8 13 12 15 9 6 -3 -12 3 -18 25 -23 16 -4 29 -11 29 -17 0 -6 -9 -8 -20
-5 -12 3 -28 -2 -37 -11 -16 -16 -16 -16 -10 2 5 13 3 17 -7 13 -9 -4 -17 2
-21 14 -4 10 -11 19 -16 19 -6 0 -7 5 -3 12 5 8 12 5 22 -11 l15 -23 14 24z
m223 10 c0 -10 -57 -9 -67 1 -3 4 10 7 30 7 21 0 37 -4 37 -8z m97 -22 c0 -16
-4 -30 -9 -30 -4 0 -8 14 -8 30 0 17 4 30 8 30 5 0 9 -13 9 -30z m66 13 c-13
-8 -23 -19 -23 -24 0 -12 47 -11 55 1 4 6 15 6 31 0 14 -6 30 -8 35 -4 5 3 9
0 9 -5 0 -7 -27 -11 -70 -11 -47 0 -70 4 -70 12 0 15 30 48 44 47 6 0 1 -7
-11 -16z m211 -34 c-3 -5 -10 -9 -16 -9 -6 0 -17 -8 -24 -17 -13 -17 -13 -17
-14 0 0 11 -8 17 -21 17 -18 0 -20 2 -9 15 10 12 15 13 20 4 5 -8 10 -8 14 -1
4 6 14 8 23 5 12 -5 14 -3 8 8 -8 12 -6 12 8 0 9 -7 14 -17 11 -22z m-651 0
c-4 -13 -9 -17 -15 -11 -11 11 -3 32 12 32 4 0 6 -9 3 -21z m178 11 c30 -16
22 -26 -16 -22 -29 3 -33 7 -24 18 14 17 15 17 40 4z m152 -2 c9 2 17 -1 17
-6 0 -5 -22 -10 -50 -11 -27 -1 -50 3 -50 8 0 11 40 20 55 12 6 -3 18 -4 28
-3z m-89 -264 c3 -8 2 -12 -4 -9 -6 3 -10 10 -10 16 0 14 7 11 14 -7z m338 1
c0 -5 -5 -11 -11 -13 -6 -2 -11 4 -11 13 0 9 5 15 11 13 6 -2 11 -8 11 -13z
m-278 -7 c-3 -4 -11 -5 -19 -1 -21 7 -19 12 4 10 11 0 18 -5 15 -9z m106 4 c0
-5 -13 -7 -30 -4 -16 2 -30 6 -30 8 0 2 14 4 30 4 17 0 30 -4 30 -8z m-150
-95 c0 -7 -4 -6 -10 3 -8 12 -10 12 -10 1 0 -8 -3 -12 -6 -8 -9 9 6 28 17 22
5 -4 9 -12 9 -18z m67 1 c-3 -8 -6 -5 -6 6 -1 11 2 17 5 13 3 -3 4 -12 1 -19z
m260 -1 c-6 -20 -27 -19 -27 2 0 14 5 19 15 14 9 -3 14 -10 12 -16z m-297 3
c0 -5 -5 -10 -11 -10 -5 0 -7 5 -4 10 3 6 8 10 11 10 2 0 4 -4 4 -10z m120 2
c0 -4 -10 -9 -22 -9 -18 -2 -20 0 -8 7 18 12 30 13 30 2z m-133 -104 c-3 -8
-6 -5 -6 6 -1 11 2 17 5 13 3 -3 4 -12 1 -19z m163 9 c0 -8 -14 -14 -35 -15
-21 -2 -35 2 -35 9 0 6 6 9 13 6 6 -2 21 -1 32 4 11 4 21 8 23 8 1 1 2 -5 2
-12z m-128 -94 c-6 -2 -9 -9 -6 -15 4 -6 -2 -5 -15 1 -27 15 -27 16 7 18 15 1
21 -1 14 -4z m52 -8 c-4 -8 -8 -15 -10 -15 -2 0 -4 7 -4 15 0 8 4 15 10 15 5
0 7 -7 4 -15z m-94 -100 c7 -9 8 -15 2 -15 -5 0 -12 7 -16 15 -3 8 -4 15 -2
15 2 0 9 -7 16 -15z m46 3 c4 -7 3 -8 -4 -4 -7 4 -12 2 -12 -5 0 -7 -3 -10 -6
-6 -6 5 3 27 11 27 2 0 7 -5 11 -12z m49 -8 c-3 -5 -10 -10 -16 -10 -5 0 -9 5
-9 10 0 6 7 10 16 10 8 0 12 -4 9 -10z m30 0 c3 -5 1 -10 -4 -10 -6 0 -11 5
-11 10 0 6 2 10 4 10 3 0 8 -4 11 -10z m-1353 -68 l23 -23 1 -387 c0 -213 -1
-354 -3 -314 -4 71 -4 72 -32 72 -16 0 -49 3 -75 6 l-46 7 0 -121 0 -120 -154
-4 c-149 -3 -155 -4 -181 -28 -15 -14 -29 -23 -33 -20 -13 11 -52 -64 -52
-101 0 -21 -4 -40 -8 -43 -5 -3 -9 -29 -11 -57 -1 -29 -4 -56 -7 -60 -2 -4 0
-9 5 -11 4 -1 10 -27 13 -55 4 -44 2 -53 -11 -53 -13 0 -16 -8 -13 -40 3 -26
-2 -49 -12 -65 -16 -24 -16 -26 0 -32 16 -6 16 -7 -2 -14 -16 -6 -14 -8 9 -8
15 -1 30 -8 34 -16 8 -23 -26 -44 -70 -45 -30 0 -45 7 -69 30 -17 17 -33 28
-37 24 -7 -8 128 -134 145 -134 13 0 24 -22 24 -46 0 -9 -4 -13 -9 -10 -4 3
-17 -2 -27 -10 -19 -15 -18 -15 1 -11 20 4 20 2 11 -44 -8 -40 -14 -49 -31
-49 -15 0 -26 12 -40 42 -16 38 -17 42 -1 53 36 27 13 23 -36 -6 -56 -33 -72
-45 -48 -37 56 19 55 20 78 -27 17 -35 22 -64 22 -120 0 -50 4 -75 11 -75 9 0
10 23 6 81 -6 78 -6 80 15 77 33 -5 50 -89 44 -228 -2 -63 -5 -117 -6 -120 -1
-3 -1 -9 0 -15 2 -5 4 -48 5 -94 l1 -85 -87 178 c-124 253 -124 254 -124 478
l0 186 -28 -34 c-27 -33 -214 -134 -248 -134 -7 0 -36 -9 -64 -21 l-50 -21
-28 -86 c-15 -48 -32 -109 -37 -137 -6 -27 -13 -61 -16 -75 -3 -14 -7 -43 -9
-64 -2 -22 -8 -51 -14 -65 -16 -43 -41 -192 -44 -261 l-3 -65 -432 -3 -432 -2
-3 -178 c-1 -97 -4 425 -5 1161 l-2 1337 470 0 471 0 -15 28 c-8 16 -26 54
-40 85 l-25 57 654 -2 654 -3 23 -23z m1208 -24 c0 -13 -19 -18 -26 -7 -5 8
-8 8 -14 0 -5 -9 -10 -9 -18 1 -8 10 -3 13 24 13 19 0 34 -3 34 -7z m30 2 c0
-5 -4 -10 -10 -10 -5 0 -10 5 -10 10 0 6 5 10 10 10 6 0 10 -4 10 -10z m28
-15 c-3 -3 -9 2 -12 12 -6 14 -5 15 5 6 7 -7 10 -15 7 -18z m64 11 c5 4 32 8
59 10 38 3 49 0 49 -11 0 -11 -6 -12 -24 -5 -13 5 -27 6 -31 2 -4 -4 -24 -7
-45 -7 -29 0 -36 3 -32 14 4 10 7 11 10 3 2 -7 8 -9 14 -6z m216 2 c-6 -18
-28 -21 -28 -4 0 9 7 16 16 16 9 0 14 -5 12 -12z m-288 -98 c0 -5 -4 -10 -10
-10 -5 0 -10 5 -10 10 0 6 5 10 10 10 6 0 10 -4 10 -10z m57 -12 c-3 -8 -6 -5
-6 6 -1 11 2 17 5 13 3 -3 4 -12 1 -19z m-76 -80 c21 1 39 -3 39 -7 0 -4 -19
-6 -42 -5 -58 3 -58 3 -58 15 0 5 5 7 11 3 6 -3 28 -6 50 -6z m98 8 c-15 -13
-49 -25 -49 -17 0 5 8 12 18 14 24 6 36 8 31 3z m38 -12 c-3 -3 -12 -4 -19 -1
-8 3 -5 6 6 6 11 1 17 -2 13 -5z m-199 -109 c-3 -3 -9 2 -12 12 -6 14 -5 15 5
6 7 -7 10 -15 7 -18z m50 13 c-2 -6 -12 -12 -21 -14 -9 -1 -15 2 -11 7 3 5 10
7 15 4 5 -4 9 -1 9 4 0 6 3 11 6 11 3 0 4 -5 2 -12z m94 0 c-13 -13 -82 -18
-82 -6 0 4 19 9 43 11 23 2 44 4 47 5 2 1 -2 -4 -8 -10z m73 1 c11 -16 1 -19
-13 -3 -7 8 -8 14 -3 14 5 0 13 -5 16 -11z m651 -30 c4 -7 9 -8 17 0 7 7 16 7
29 0 15 -8 17 -13 7 -25 -9 -11 -8 -14 5 -14 9 0 16 5 16 10 0 6 5 10 10 10 6
0 10 -7 10 -15 0 -14 -17 -20 -50 -17 -29 3 -80 -9 -75 -18 3 -5 12 -7 20 -3
8 3 15 0 15 -6 0 -7 -20 -11 -51 -11 -45 0 -49 2 -35 15 8 8 19 15 24 15 6 0
12 7 15 15 5 11 1 12 -18 5 -33 -13 -32 3 1 29 30 23 49 27 60 10z m239 -16
c3 -9 3 -18 0 -21 -3 -3 -5 0 -5 7 0 8 -7 10 -20 6 -15 -5 -20 -2 -20 13 0 15
5 19 19 15 11 -3 22 -12 26 -20z m-105 -4 c0 -5 -4 -9 -10 -9 -5 0 -10 7 -10
16 0 8 5 12 10 9 6 -3 10 -10 10 -16z m-1463 -46 c-3 -10 -5 -2 -5 17 0 19 2
27 5 18 2 -10 2 -26 0 -35z m5383 35 c55 0 100 -4 100 -9 0 -4 -8 -8 -17 -8
-10 0 -54 -2 -98 -4 -45 -2 -86 2 -94 7 -12 9 -13 8 -6 -4 6 -12 5 -12 -5 -3
-13 12 -4 37 10 28 5 -3 54 -6 110 -7z m-943 -11 c-3 -10 -19 -11 -87 -8 -11
1 -20 5 -20 11 0 6 24 9 55 9 34 -1 54 -6 52 -12z m93 1 c0 7 5 10 11 6 8 -4
7 -9 -2 -15 -15 -9 -29 -3 -29 14 0 7 4 6 10 -3 7 -11 10 -11 10 -2z m50 2 c0
-5 -4 -10 -10 -10 -5 0 -10 5 -10 10 0 6 5 10 10 10 6 0 10 -4 10 -10z m85 0
c-26 -11 -65 -12 -65 -2 0 4 19 9 43 10 32 1 37 -1 22 -8z m75 -2 c0 -6 -3 -9
-6 -5 -3 3 -17 2 -30 -3 -18 -7 -22 -6 -17 5 6 18 53 20 53 3z m110 1 c0 6 12
11 28 11 l27 -1 -30 -13 c-31 -14 -55 -11 -55 6 0 6 6 5 15 -2 10 -9 15 -9 15
-1z m190 1 c0 -4 -6 -7 -12 -7 -7 0 -17 -2 -23 -3 -23 -6 -75 1 -75 9 0 5 25
9 55 9 30 -1 55 -4 55 -8z m170 1 c0 -4 -22 -8 -50 -8 -27 -1 -50 1 -50 6 0 4
23 8 50 8 28 1 50 -2 50 -6z m30 -7 c0 -8 -4 -12 -10 -9 -5 3 -10 10 -10 16 0
5 5 9 10 9 6 0 10 -7 10 -16z m330 4 c0 8 21 12 70 12 39 0 70 -4 70 -10 0 -5
-7 -6 -17 -3 -10 4 -14 2 -10 -4 4 -7 -3 -10 -18 -9 -14 0 -25 4 -25 8 0 4 -6
5 -12 3 -26 -9 -71 -14 -80 -9 -4 3 -5 10 -2 16 4 6 10 5 15 -3 6 -10 9 -11 9
-1z m190 -3 c0 -14 -32 -13 -37 1 -2 6 5 11 17 10 11 0 20 -5 20 -11z m114 0
c3 -9 0 -15 -9 -15 -16 0 -27 14 -18 24 10 10 21 7 27 -9z m-5459 -27 c5 4 5
1 1 -6 -5 -9 -12 -9 -27 -2 -10 6 -19 13 -19 16 0 2 8 0 19 -5 10 -6 22 -7 26
-3z m270 3 c3 -5 0 -13 -6 -17 -8 -4 -9 -3 -5 4 4 7 3 12 -3 12 -5 0 -13 -5
-16 -10 -4 -6 -11 -7 -18 -3 -7 4 -4 9 9 14 26 10 32 10 39 0z m39 -3 c-3 -4
-9 -8 -15 -8 -5 0 -9 4 -9 8 0 5 7 9 15 9 8 0 12 -4 9 -9z m-254 -2 c0 -11
-19 -15 -25 -6 -3 5 1 10 9 10 9 0 16 -2 16 -4z m95 -6 c7 -12 -2 -12 -30 0
-19 8 -19 9 2 9 12 1 25 -3 28 -9z m3268 -24 c12 -9 17 -27 17 -60 0 -37 -3
-46 -17 -45 -11 0 -13 3 -5 6 6 2 12 17 12 32 0 25 -3 27 -29 23 -28 -4 -57
18 -33 26 7 2 12 10 12 18 0 17 19 18 43 0z m498 -28 c-5 -13 -12 -47 -16 -75
-11 -83 -25 -73 -25 16 0 79 0 81 25 81 21 0 23 -3 16 -22z m85 -60 c-3 -46
-8 -107 -12 -137 -4 -38 -3 -51 5 -47 6 4 11 5 11 2 0 -2 3 -12 7 -22 4 -11 3
-15 -5 -10 -8 4 -8 -3 -1 -26 5 -18 9 -33 9 -33 0 -1 11 -16 25 -35 l24 -33
22 49 c11 27 22 67 24 89 1 22 3 46 4 53 0 7 15 12 36 12 34 0 35 -1 35 -42 0
-45 25 -109 61 -160 l22 -30 15 28 c8 16 18 54 21 84 6 53 7 55 36 55 28 0 30
-2 31 -42 2 -41 36 -124 60 -144 18 -14 46 43 50 100 4 51 3 50 35 53 21 3 24
-2 29 -42 7 -51 48 -137 59 -124 13 14 31 76 25 85 -10 17 17 50 39 47 18 -2
23 -11 28 -48 3 -25 15 -63 26 -85 l21 -40 12 30 c7 17 13 48 14 70 1 35 5 40
26 40 22 0 26 -6 32 -48 3 -26 19 -69 34 -95 l28 -47 3 -207 c2 -190 0 -207
-17 -223 -10 -9 -23 -14 -29 -11 -5 4 -13 1 -16 -4 -4 -7 -19 -9 -35 -5 -16 3
-47 1 -70 -5 -28 -8 -45 -8 -54 -1 -7 6 -21 8 -33 5 -18 -5 -20 -2 -16 20 3
14 1 32 -4 39 -5 6 -9 38 -9 69 1 32 -3 58 -7 58 -11 0 -5 63 6 71 5 4 9 28 8
55 -1 27 -2 64 -1 82 0 17 -3 32 -8 32 -13 -1 -57 -40 -44 -40 24 0 12 -46
-18 -69 -28 -20 -32 -20 -46 -6 -34 34 -37 19 -30 -143 7 -163 2 -189 -34
-196 -8 -2 -27 -6 -43 -11 -17 -4 -33 -3 -42 5 -8 6 -19 9 -25 5 -6 -4 -24 -8
-38 -10 -15 -1 -46 -6 -68 -10 -35 -6 -43 -4 -56 14 -8 11 -17 18 -20 15 -3
-3 -15 7 -27 22 l-21 26 -19 -45 c-19 -44 -22 -46 -56 -43 -19 2 -38 6 -42 10
-11 11 -21 6 -26 -14 -4 -17 -9 -18 -37 -10 -18 5 -37 7 -42 4 -12 -7 -38 15
-38 32 0 8 6 11 18 7 15 -5 15 -4 2 8 -8 8 -20 21 -27 29 -11 13 -12 11 -8
-11 7 -31 -15 -54 -44 -44 -11 3 -29 0 -40 -7 -17 -10 -25 -10 -42 0 -11 7
-29 10 -40 7 -24 -8 -24 0 5 79 13 36 21 68 18 71 -3 3 -20 5 -39 5 l-33 0 0
95 0 95 28 0 c34 0 43 7 35 26 -5 13 -8 12 -24 -2 -18 -16 -19 -16 -19 2 0 10
4 26 10 34 7 12 12 11 32 -5 13 -11 28 -25 34 -32 9 -10 15 -8 30 9 15 18 15
20 2 9 -15 -11 -20 -10 -33 3 -9 9 -20 16 -25 16 -4 0 -15 12 -25 26 -14 23
-15 30 -4 53 21 43 19 52 -12 58 -27 5 -29 8 -29 55 0 35 7 62 26 94 17 28 28
65 31 104 l6 60 33 0 c26 0 34 -4 35 -17 2 -64 10 -95 40 -145 18 -32 36 -58
39 -58 15 1 82 160 85 203 1 26 5 50 7 52 2 3 20 6 39 7 l34 3 -5 88 c-5 79
-3 87 13 87 17 0 18 -7 13 -82z m83 70 c0 -7 -4 -22 -8 -32 -7 -18 -9 -16 -19
12 -10 29 -9 32 9 32 10 0 19 -6 18 -12z m-3117 -7 c-7 -4 -12 -12 -11 -17 5
-27 -3 -35 -28 -32 -22 2 -29 9 -31 31 -3 26 -1 27 40 27 26 0 38 -3 30 -9z
m-1367 -218 c5 -30 4 -43 -4 -43 -16 0 -14 -45 3 -59 10 -9 16 -8 26 4 13 15
57 19 98 9 17 -5 22 -14 22 -39 0 -18 6 -36 13 -38 6 -3 2 -6 -10 -6 -38 -2
-37 -22 3 -57 45 -39 98 -46 120 -16 12 15 13 15 14 1 0 -14 11 -17 54 -18 51
0 164 14 172 22 2 2 -3 25 -12 51 -19 56 -12 66 48 66 20 0 43 3 52 6 9 3 16
1 16 -5 0 -6 -19 -11 -45 -11 -50 0 -55 -8 -25 -35 16 -14 23 -16 32 -7 15 15
28 15 28 2 0 -5 -7 -10 -15 -10 -19 0 -19 -7 0 -26 10 -10 23 -13 37 -8 13 4
37 7 54 5 20 -1 37 6 49 19 17 19 17 22 3 36 -8 9 -34 18 -57 21 -59 8 -59 19
0 19 27 0 49 -3 49 -6 0 -6 45 -30 56 -30 3 0 2 9 -1 20 -4 12 -2 20 5 20 8 0
10 -10 8 -25 -3 -14 0 -29 6 -33 6 -4 -3 -9 -22 -12 -18 -3 -33 -8 -32 -12 0
-5 2 -8 5 -8 3 0 73 0 155 0 l150 0 0 45 c0 41 -2 45 -24 45 -13 0 -27 -6 -29
-12 -3 -7 -6 26 -6 75 l-1 87 155 0 c167 0 162 2 156 -54 -2 -24 17 -46 38
-46 14 1 14 2 -1 14 -10 7 -14 17 -10 21 4 5 1 5 -5 1 -7 -4 -13 -2 -13 3 0 6
8 11 17 11 13 0 14 3 5 12 -15 15 -16 38 -2 38 6 0 10 -9 10 -20 0 -11 4 -20
10 -20 5 0 7 -6 4 -14 -4 -10 2 -12 22 -8 19 3 25 1 20 -7 -4 -6 -12 -9 -17
-6 -12 8 -11 -5 2 -44 6 -17 15 -31 20 -31 13 0 11 18 -2 22 -9 3 -9 10 0 27
7 13 18 20 27 17 11 -4 14 4 14 34 l0 40 54 0 c60 0 67 -9 61 -78 -4 -38 -15
-56 -15 -24 0 19 -6 22 -45 22 -32 0 -45 -4 -45 -14 0 -8 -3 -21 -6 -30 -5
-12 1 -16 24 -16 16 0 44 -3 61 -6 25 -5 29 -9 20 -20 -13 -16 -33 -19 -24 -4
4 6 -10 10 -34 10 -22 0 -42 -5 -44 -12 -4 -10 -8 -10 -15 1 -8 10 -14 11 -28
1 -16 -9 -16 -11 -2 -6 10 3 20 1 22 -3 10 -16 -22 -44 -53 -46 -29 -2 -30 -1
-15 16 47 52 -42 70 -91 19 -24 -25 -27 -33 -16 -40 11 -6 9 -9 -10 -13 -13
-3 50 -3 141 1 190 7 208 7 235 1 19 -4 20 1 20 73 l-1 77 26 -6 c21 -5 23 -4
13 8 -10 12 -8 17 6 26 17 10 18 7 17 -47 0 -32 -3 -57 -6 -55 -3 2 -12 0 -20
-6 -13 -7 -12 -9 2 -9 27 0 48 11 48 26 0 8 5 14 10 14 15 0 12 -16 -5 -30
-16 -13 -16 -33 -1 -30 5 1 12 -4 16 -11 6 -8 14 -6 31 11 13 13 19 20 12 16
-20 -11 -23 10 -3 27 11 9 27 14 37 10 13 -5 15 -3 10 11 -5 12 -3 16 5 13 7
-2 12 -10 11 -18 -2 -9 16 -21 46 -32 27 -9 52 -25 55 -34 6 -16 6 -16 -12 0
-27 25 -67 19 -67 -10 0 -14 6 -23 16 -23 8 0 30 -11 47 -24 25 -18 29 -25 17
-29 -23 -9 -19 -47 5 -48 41 -3 45 -4 45 -18 0 -13 -40 -15 -250 -18 -231 -3
-251 -4 -265 -22 -14 -17 -28 -19 -170 -16 -85 1 -231 3 -323 4 -120 1 -166 4
-161 12 4 7 -1 7 -16 -1 -12 -6 -24 -9 -28 -6 -3 3 0 6 6 6 7 0 12 4 12 9 0 6
-9 9 -20 8 -12 -1 -18 -7 -16 -14 7 -17 -6 -17 -23 0 -9 8 -12 8 -7 0 3 -6 0
-14 -6 -16 -12 -5 2 -8 59 -11 30 -2 38 -13 14 -21 -12 -3 -21 -12 -21 -18 0
-7 -5 -4 -11 6 -8 14 -14 16 -25 6 -11 -9 -17 -9 -29 1 -10 8 -15 9 -15 1 0
-15 47 -44 60 -36 19 12 10 -7 -27 -55 -54 -69 -59 -71 -165 -63 -51 3 -84 9
-73 13 10 4 14 9 8 13 -14 9 -15 77 0 77 7 0 19 5 27 10 13 9 13 11 0 21 -12
9 -11 10 6 6 12 -2 32 1 45 9 22 11 19 12 -36 12 -33 0 -139 1 -235 1 -96 1
-185 -1 -198 -5 -19 -5 -21 -3 -16 12 4 14 3 15 -4 6 -11 -17 -248 -20 -264
-4 -6 6 -5 17 3 30 17 27 -3 52 -42 52 -16 0 -30 3 -30 8 -6 34 -5 52 5 52 5
0 3 7 -5 16 -9 9 -14 25 -11 40 5 26 22 34 22 10 0 -17 27 -46 41 -46 6 0 7 9
4 20 -4 11 -2 20 4 20 19 0 12 18 -10 23 -27 7 -22 47 8 63 13 6 20 13 18 16
-3 3 -8 17 -11 31 -3 22 -1 25 16 22 38 -7 58 -35 25 -35 -8 0 -15 -7 -15 -16
0 -10 6 -14 14 -11 8 3 16 -2 19 -13 5 -19 6 -19 46 -2 35 15 41 21 41 48 0
23 -5 33 -20 37 -12 3 -21 14 -21 29 -2 23 -2 23 -6 1 -6 -33 -18 -28 -18 7 0
16 -4 28 -10 27 -5 -1 -9 -17 -9 -34 1 -23 -3 -33 -13 -33 -9 0 -13 6 -9 15 4
12 -2 15 -28 15 -19 0 -42 3 -52 7 -13 5 -16 3 -11 -10 3 -9 1 -19 -4 -23 -7
-4 -10 3 -9 17 4 50 1 59 -25 59 -21 0 -25 -5 -25 -29 0 -20 6 -31 18 -34 14
-4 13 -5 -3 -6 -12 0 -26 4 -33 11 -8 8 -15 8 -25 0 -8 -7 -34 -12 -60 -13
-38 -2 -47 -6 -50 -23 -2 -12 -5 12 -6 52 l-1 72 183 -2 c180 -3 182 -3 185
-25 2 -13 8 -23 13 -23 5 0 9 -11 9 -25 0 -16 6 -25 15 -25 10 0 15 10 15 30
0 21 -5 30 -16 30 -8 0 -13 4 -10 9 4 5 0 12 -6 14 -7 3 -3 6 10 6 21 1 22 6
24 79 l1 77 8 -85 c4 -47 10 -104 14 -127z m1876 183 c-6 -7 -24 -13 -41 -14
-17 0 -39 -4 -50 -7 -11 -3 -20 -2 -20 3 0 10 100 41 113 34 4 -2 3 -9 -2 -16z
m284 9 c6 -2 -43 -4 -107 -4 -65 -1 -118 3 -118 7 0 8 202 5 225 -3z m210 -15
c-16 -16 -23 -30 -17 -30 7 0 12 5 12 10 0 7 7 7 18 2 9 -4 32 -7 50 -6 24 2
32 -2 32 -15 0 -12 -8 -16 -32 -15 -47 2 -79 -12 -72 -31 3 -8 2 -15 -4 -15
-5 0 -13 16 -16 36 -5 26 -10 33 -19 26 -8 -7 -18 -6 -29 2 -22 16 -13 26 24
26 15 0 28 5 28 10 0 6 10 15 23 20 33 13 33 12 2 -20z m65 20 c0 -9 -31 -30
-44 -30 -3 0 2 9 11 20 19 21 33 26 33 10z m-1620 -21 c0 -5 -7 -9 -15 -9 -8
0 -15 7 -15 15 0 9 6 12 15 9 8 -4 15 -10 15 -15z m2854 10 c-5 -9 1 -10 21
-5 25 6 27 5 16 -8 -14 -16 -52 -22 -64 -9 -8 7 11 33 25 33 5 0 6 -5 2 -11z
m-3536 -21 c-4 -28 -42 -37 -52 -13 -9 24 1 35 30 35 21 0 25 -4 22 -22z m492
13 c0 -5 -7 -11 -14 -14 -10 -4 -13 -1 -9 9 6 15 23 19 23 5z m2008 -4 c14 4
14 3 2 -5 -16 -12 -30 -7 -29 11 0 9 2 9 5 0 3 -7 13 -9 22 -6z m544 -42 c56
6 93 15 96 23 2 6 -1 12 -8 12 -6 0 -8 5 -5 10 10 16 25 1 25 -26 0 -20 5 -24
32 -24 17 0 29 -3 26 -6 -8 -7 -62 -12 -163 -14 -109 -2 -117 -1 -111 9 8 12
-3 41 -15 41 -5 0 -10 -8 -10 -17 -1 -16 -2 -16 -6 0 -4 16 -13 18 -61 14 -76
-6 -115 -17 -125 -33 -12 -20 -27 -17 -27 6 0 19 18 27 65 29 58 2 176 19 183
25 4 4 8 -7 10 -26 l3 -33 91 10z m198 25 c0 -16 -4 -30 -9 -30 -5 0 -11 14
-13 30 -3 20 0 30 9 30 8 0 13 -12 13 -30z m398 -7 c19 -30 11 -29 -23 3 -21
19 -24 25 -10 23 10 -2 24 -14 33 -26z m-2091 -51 c22 -3 37 -27 27 -43 -3 -5
-18 -9 -35 -9 -20 0 -29 5 -30 18 -1 16 -2 16 -6 0 -3 -12 -13 -17 -29 -16
-19 2 -24 8 -24 30 0 25 -3 27 -47 31 -33 3 -30 3 7 1 30 -1 64 -4 75 -6 16
-2 21 4 24 32 l4 35 6 -35 c5 -26 12 -36 28 -38z m890 62 c-3 -3 -12 -4 -19
-1 -8 3 -5 6 6 6 11 1 17 -2 13 -5z m-3057 -24 c0 -5 -9 -10 -20 -10 -11 0
-20 5 -20 10 0 6 9 10 20 10 11 0 20 -4 20 -10z m40 0 c0 -5 -5 -10 -11 -10
-5 0 -7 5 -4 10 3 6 8 10 11 10 2 0 4 -4 4 -10z m2220 0 c0 -5 -4 -10 -10 -10
-5 0 -10 5 -10 10 0 6 5 10 10 10 6 0 10 -4 10 -10z m798 -7 c5 -18 -16 -16
-35 3 -15 14 -14 16 7 12 13 -1 25 -9 28 -15z m242 2 c0 -8 -7 -15 -16 -15
-13 0 -15 -10 -13 -52 2 -29 0 -59 -4 -65 -5 -7 -5 -17 -2 -23 3 -5 -1 -10
-10 -10 -9 0 -13 5 -10 10 6 9 -8 14 -27 11 -5 0 -8 4 -8 9 0 6 5 10 10 10 6
0 10 9 10 19 0 11 -4 23 -10 26 -5 3 -10 -3 -10 -15 0 -18 -5 -21 -37 -18 -31
2 -39 7 -41 26 -3 20 1 22 42 22 36 0 46 4 51 20 3 11 13 20 21 20 8 0 14 9
14 20 0 13 7 20 20 20 11 0 20 -7 20 -15z m660 10 c0 -13 -40 -48 -47 -41 -4
4 -1 11 7 16 8 6 11 10 5 10 -5 0 -3 5 5 10 17 11 30 13 30 5z m86 -15 c13 0
24 5 24 10 0 15 47 12 53 -3 4 -10 -13 -14 -72 -16 -69 -2 -74 -1 -56 13 11 8
22 10 23 5 2 -5 15 -9 28 -9z m144 2 c0 -4 -10 -9 -22 -9 -18 -2 -20 0 -8 7
18 12 30 13 30 2z m-731 -22 l76 -7 -76 -2 c-61 -1 -79 2 -90 16 -12 14 -12
15 0 9 7 -5 48 -12 90 -16z m420 0 c-11 -7 -14 -25 -18 -105 -1 -26 -41 -32
-41 -7 0 11 -3 13 -8 6 -4 -7 -16 -14 -27 -17 -17 -4 -17 -5 4 -6 16 -1 21 -5
17 -16 -10 -27 41 -37 161 -31 70 4 114 2 118 -4 4 -6 -25 -10 -78 -10 l-84 0
-8 -32 c-7 -29 -9 -30 -12 -10 -3 12 -11 22 -19 22 -8 0 -14 5 -14 10 0 6 -9
10 -20 10 -20 0 -25 -17 -21 -80 2 -20 0 -22 -8 -10 -8 12 -12 10 -19 -10 -11
-29 -6 -44 14 -36 22 8 26 -12 5 -24 -14 -7 -22 -7 -26 0 -5 8 -11 7 -20 0
-17 -15 -55 -4 -55 16 0 8 5 14 10 14 6 0 8 13 5 31 -5 25 -2 30 12 29 56 -6
63 -2 63 40 l0 40 -91 -6 -90 -6 3 29 c2 18 10 29 23 32 26 5 46 32 41 55 -4
16 0 18 33 13 34 -4 38 -3 34 14 -8 28 12 23 33 -8 10 -16 19 -23 22 -15 2 6
10 12 18 12 9 0 14 11 14 34 0 19 6 36 13 39 18 6 31 -4 16 -13z m-1439 2 c0
5 48 8 115 6 71 -1 114 -6 112 -12 -4 -12 -55 -27 -61 -18 -2 4 -19 6 -38 6
-27 -1 -33 -5 -32 -23 0 -18 -5 -21 -39 -21 -34 0 -39 2 -34 20 4 15 0 20 -14
20 -18 0 -27 -24 -11 -33 4 -2 2 -2 -5 -1 -7 2 -15 -1 -18 -6 -8 -13 -55 -13
-55 -1 0 5 6 11 13 14 9 3 7 10 -6 25 -22 24 -8 32 41 21 18 -4 32 -3 32 3z
m372 -10 c-16 -5 -16 -29 1 -35 7 -3 5 -6 -5 -6 -10 -1 -18 -8 -18 -16 0 -8
-4 -15 -9 -15 -15 0 -19 24 -7 44 8 14 8 20 -3 24 -22 7 7 21 32 14 12 -3 16
-7 9 -10z m62 -7 c3 -8 1 -15 -4 -15 -6 0 -10 7 -10 15 0 8 2 15 4 15 2 0 6
-7 10 -15z m106 5 c0 -5 -5 -10 -11 -10 -5 0 -7 5 -4 10 3 6 8 10 11 10 2 0 4
-4 4 -10z m387 -1 c17 -17 4 -39 -23 -39 -17 0 -24 6 -24 18 0 32 25 43 47 21z
m-2377 -13 c0 -3 -4 -8 -10 -11 -5 -3 -10 -1 -10 4 0 6 5 11 10 11 6 0 10 -2
10 -4z m50 -6 c0 -5 -4 -10 -10 -10 -5 0 -10 5 -10 10 0 6 5 10 10 10 6 0 10
-4 10 -10z m90 0 c0 -5 -2 -10 -4 -10 -3 0 -8 5 -11 10 -3 6 -1 10 4 10 6 0
11 -4 11 -10z m1197 -12 c-3 -8 -6 -5 -6 6 -1 11 2 17 5 13 3 -3 4 -12 1 -19z
m413 -28 c0 -17 -19 -11 -30 9 -16 32 -11 42 10 21 11 -11 20 -24 20 -30z
m1237 44 c-3 -3 -12 -4 -19 -1 -8 3 -5 6 6 6 11 1 17 -2 13 -5z m-1388 -18 c9
-11 6 -13 -16 -13 -16 0 -22 2 -15 4 6 3 10 9 6 14 -9 14 12 10 25 -5z m101
-23 c0 -2 -6 -3 -12 -3 -21 0 -41 17 -34 28 4 8 13 6 26 -6 11 -9 20 -18 20
-19z m-2668 -13 c-2 -19 -3 -52 -2 -72 0 -21 -3 -38 -7 -39 -46 -6 -61 -4 -57
5 5 13 -38 17 -46 4 -4 -4 -20 -11 -38 -14 -29 -6 -32 -4 -32 17 0 39 14 53
33 35 13 -13 16 -14 21 -1 3 8 17 15 31 15 21 0 25 5 25 30 0 25 -4 30 -25 30
-16 0 -25 6 -25 15 0 13 11 15 62 13 l63 -3 -3 -35z m628 15 c0 -12 -13 -15
-59 -15 -33 0 -67 3 -76 6 -30 12 6 24 73 24 48 0 62 -3 62 -15z m1980 5 c0
-5 -2 -10 -4 -10 -3 0 -8 5 -11 10 -3 6 -1 10 4 10 6 0 11 -4 11 -10z m410 0
c0 -5 -5 -10 -11 -10 -5 0 -7 5 -4 10 3 6 8 10 11 10 2 0 4 -4 4 -10z m907
-23 c2 -17 1 -19 -7 -7 -11 17 -14 47 -3 36 4 -3 8 -17 10 -29z m373 23 c0 -5
-14 -10 -31 -10 -17 0 -28 4 -24 10 3 6 17 10 31 10 13 0 24 -4 24 -10z
m-1200 -10 c0 -5 -2 -10 -4 -10 -3 0 -8 5 -11 10 -3 6 -1 10 4 10 6 0 11 -4
11 -10z m-1660 -4 c0 -2 -9 -6 -20 -9 -11 -3 -20 -1 -20 4 0 5 9 9 20 9 11 0
20 -2 20 -4z m1495 -16 c3 -5 -3 -10 -14 -10 -12 0 -21 5 -21 10 0 6 6 10 14
10 8 0 18 -4 21 -10z m931 -27 c-11 -11 -19 6 -11 24 8 17 8 17 12 0 3 -10 2
-21 -1 -24z m-1374 5 c-7 -7 -12 -8 -12 -2 0 14 12 26 19 19 2 -3 -1 -11 -7
-17z m613 2 c0 -7 -6 -15 -12 -17 -8 -3 -13 4 -13 17 0 13 5 20 13 18 6 -3 12
-11 12 -18z m335 11 c0 -5 -7 -11 -15 -15 -9 -3 -15 0 -15 9 0 8 7 15 15 15 8
0 15 -4 15 -9z m95 -11 c0 -7 -6 -15 -12 -17 -8 -3 -13 4 -13 17 0 13 5 20 13
18 6 -3 12 -11 12 -18z m-2857 3 c-10 -2 -26 -2 -35 0 -10 3 -2 5 17 5 19 0
27 -2 18 -5z m156 -25 c-6 -53 -14 -78 -24 -78 -6 0 -10 14 -10 30 0 19 -5 30
-12 28 -26 -4 -58 14 -58 33 0 16 7 19 54 19 l53 0 -3 -32z m143 26 c-3 -3
-12 -4 -19 -1 -8 3 -5 6 6 6 11 1 17 -2 13 -5z m193 0 c0 -3 -6 -12 -14 -20
-21 -21 -46 -17 -46 6 0 16 7 20 30 20 17 0 30 -3 30 -6z m77 -16 c-3 -8 -6
-5 -6 6 -1 11 2 17 5 13 3 -3 4 -12 1 -19z m70 -30 c-2 -30 -7 -53 -15 -56 -8
-2 -10 5 -5 29 5 27 4 31 -10 26 -10 -4 -17 -2 -17 3 0 6 7 10 15 10 8 0 15 9
15 20 0 11 4 20 9 20 5 0 9 -23 8 -52z m56 32 c-3 -11 -7 -20 -9 -20 -2 0 -4
9 -4 20 0 11 4 20 9 20 5 0 7 -9 4 -20z m24 -12 c-3 -7 -5 -2 -5 12 0 14 2 19
5 13 2 -7 2 -19 0 -25z m50 0 c-3 -7 -5 -2 -5 12 0 14 2 19 5 13 2 -7 2 -19 0
-25z m710 26 c-3 -3 -12 -4 -19 -1 -8 3 -5 6 6 6 11 1 17 -2 13 -5z m621 1
c-3 -3 -16 -8 -28 -10 -13 -3 -27 -10 -31 -17 -7 -10 -11 -10 -21 0 -9 9 -9
12 5 12 9 0 17 5 17 10 0 6 14 10 32 10 17 0 29 -2 26 -5z m387 -15 c3 -5 16
-10 28 -11 12 0 16 -3 10 -6 -7 -2 -13 -11 -13 -19 0 -10 -12 -14 -40 -14 -33
0 -40 3 -40 20 0 14 7 20 21 20 11 0 17 5 14 10 -3 6 -2 10 4 10 5 0 13 -4 16
-10z m-2155 -15 c0 -8 -7 -15 -15 -15 -16 0 -20 12 -8 23 11 12 23 8 23 -8z
m1380 5 c0 -6 -16 -10 -35 -8 -19 1 -35 6 -35 10 0 4 16 8 35 8 19 0 35 -5 35
-10z m1730 0 c0 -5 -7 -10 -15 -10 -8 0 -15 5 -15 10 0 6 7 10 15 10 8 0 15
-4 15 -10z m-3456 -9 c-28 -3 -79 -3 -115 0 -51 5 -41 6 51 6 77 0 98 -2 64
-6z m2890 -34 c-10 -27 -44 -21 -44 7 0 13 6 26 13 29 18 7 39 -17 31 -36z
m-2484 20 c0 -9 9 -12 29 -9 26 4 29 2 24 -17 -6 -22 15 -29 33 -11 5 5 15 6
24 0 17 -11 12 -17 -15 -20 -51 -6 -63 -1 -58 23 l5 22 -16 -22 c-10 -13 -21
-23 -25 -23 -11 0 -29 43 -24 58 6 16 23 16 23 -1z m190 2 c0 -5 -16 -9 -35
-9 -46 0 -46 15 0 16 19 1 35 -3 35 -7z m1630 7 c0 -3 -4 -8 -10 -11 -5 -3
-10 -1 -10 4 0 6 5 11 10 11 6 0 10 -2 10 -4z m-339 -19 c-1 -12 -15 -9 -19 4
-3 6 1 10 8 8 6 -3 11 -8 11 -12z m1719 3 c-20 -5 -39 -5 -44 1 -6 5 7 9 35 8
l44 -1 -35 -8z m-2903 -37 c-3 -10 -5 -4 -5 12 0 17 2 24 5 18 2 -7 2 -21 0
-30z m30 0 c-3 -10 -5 -4 -5 12 0 17 2 24 5 18 2 -7 2 -21 0 -30z m938 27 c-3
-5 -12 -10 -18 -10 -7 0 -6 4 3 10 19 12 23 12 15 0z m255 0 c0 -5 -4 -10 -10
-10 -5 0 -10 5 -10 10 0 6 5 10 10 10 6 0 10 -4 10 -10z m1580 -20 c0 -20 -5
-30 -15 -30 -16 0 -19 17 -9 44 10 26 24 18 24 -14z m-890 16 c0 -9 -30 -14
-35 -6 -4 6 3 10 14 10 12 0 21 -2 21 -4z m835 -14 c-3 -3 -11 0 -18 7 -9 10
-8 11 6 5 10 -3 15 -9 12 -12z m-3107 -15 c3 -12 -3 -17 -22 -17 -25 0 -35 18
-19 34 12 12 38 2 41 -17z m244 1 c-7 -7 -12 -8 -12 -2 0 14 12 26 19 19 2 -3
-1 -11 -7 -17z m948 12 c0 -5 -7 -10 -16 -10 -8 0 -12 5 -9 10 3 6 10 10 16
10 5 0 9 -4 9 -10z m1125 -8 c0 -18 -20 -15 -23 4 -3 10 1 15 10 12 7 -3 13
-10 13 -16z m-935 -2 c0 -5 -4 -10 -10 -10 -5 0 -10 5 -10 10 0 6 5 10 10 10
6 0 10 -4 10 -10z m78 3 c-10 -2 -26 -2 -35 0 -10 3 -2 5 17 5 19 0 27 -2 18
-5z m109 1 c-3 -3 -12 -4 -19 -1 -8 3 -5 6 6 6 11 1 17 -2 13 -5z m95 -33 l-4
-39 39 2 c21 1 44 5 51 9 7 5 12 3 12 -4 0 -7 10 -9 27 -6 33 6 62 -18 44 -36
-9 -9 -14 -9 -20 2 -10 16 -121 29 -121 15 1 -21 38 -57 53 -51 9 3 17 1 19
-4 2 -6 15 -6 35 2 18 6 64 9 103 7 47 -2 70 1 70 8 0 12 -86 28 -100 19 -4
-3 -10 2 -14 10 -4 13 10 15 96 15 100 0 101 0 83 20 -18 19 -17 20 2 20 12 0
23 -8 26 -20 4 -16 14 -20 45 -20 22 0 45 6 51 14 20 24 82 -5 105 -48 23 -42
19 -49 -25 -44 -31 3 -32 4 -16 20 16 16 16 18 1 26 -9 5 -25 7 -35 5 -11 -3
-19 0 -19 6 0 6 -5 11 -11 11 -8 0 -7 -5 1 -15 20 -24 13 -28 -80 -42 l-45 -7
35 -6 c19 -3 45 -3 58 2 12 4 22 4 22 -1 0 -21 81 -60 136 -66 105 -11 112
-14 99 -35 -6 -9 -9 -9 -15 0 -9 15 -60 5 -60 -11 0 -6 9 -8 19 -4 27 8 77 -5
59 -16 -7 -5 -27 -9 -44 -9 -19 0 -38 -8 -50 -21 -17 -19 -26 -21 -89 -15 -38
4 -74 11 -79 16 -6 6 -31 10 -57 10 -26 0 -51 5 -54 10 -3 6 -13 10 -21 10 -9
0 -22 7 -30 15 -14 13 -13 15 4 15 11 0 22 6 25 14 3 8 16 16 29 19 20 4 20 4
-5 6 -15 0 -36 -5 -47 -11 -17 -11 -22 -10 -30 2 -8 13 -11 13 -19 1 -6 -9
-18 -11 -35 -7 -19 5 -26 13 -26 31 0 33 -18 32 -30 -1 -13 -34 -13 -34 9 -34
10 0 24 -6 30 -14 10 -12 9 -13 -7 -9 -11 2 -23 0 -26 -6 -5 -8 -13 -8 -28 0
-14 7 -28 8 -46 0 -38 -14 -91 -21 -97 -12 -2 5 -27 7 -55 5 -27 -1 -50 -1
-50 1 0 1 12 11 27 21 22 14 47 17 128 17 55 -1 92 1 82 4 -22 6 -16 29 7 25
9 -2 16 4 16 13 0 11 -12 15 -49 15 -45 0 -50 -3 -59 -27 l-10 -28 -1 27 c-1
26 -3 28 -51 27 -42 -1 -50 -5 -50 -20 0 -11 -5 -19 -11 -19 -6 0 -9 9 -6 20
4 18 2 20 -16 14 -20 -5 -20 -5 -7 9 8 9 35 19 60 22 59 8 69 19 49 53 -10 19
-23 27 -41 27 -15 -1 -24 3 -22 7 3 4 14 8 25 8 30 0 27 57 -3 63 -18 3 -16 5
7 6 30 1 30 0 27 -38z m48 29 c0 -5 -2 -10 -4 -10 -3 0 -8 5 -11 10 -3 6 -1
10 4 10 6 0 11 -4 11 -10z m350 0 c0 -5 -4 -10 -10 -10 -5 0 -10 5 -10 10 0 6
5 10 10 10 6 0 10 -4 10 -10z m378 -29 c-2 -9 -13 -17 -24 -19 -18 -3 -21 1
-17 21 4 19 10 23 24 20 12 -3 19 -12 17 -22z m32 19 c0 -5 -5 -10 -11 -10 -5
0 -7 5 -4 10 3 6 8 10 11 10 2 0 4 -4 4 -10z m63 -17 c3 -17 0 -23 -14 -23
-13 0 -19 7 -19 23 0 14 6 24 14 24 8 0 16 -11 19 -24z m-3580 -12 c2 -10 1
-25 -4 -32 -6 -10 -9 -4 -9 19 0 36 5 42 13 13z m837 -6 c0 -18 -5 -25 -20
-25 -25 0 -27 37 -2 43 9 3 18 5 20 6 1 0 2 -10 2 -24z m-120 5 c0 -5 -4 -10
-10 -10 -5 0 -10 5 -10 10 0 6 5 10 10 10 6 0 10 -4 10 -10z m30 0 c0 -5 -2
-10 -4 -10 -3 0 -8 5 -11 10 -3 6 -1 10 4 10 6 0 11 -4 11 -10z m597 -12 c-3
-8 -6 -5 -6 6 -1 11 2 17 5 13 3 -3 4 -12 1 -19z m90 0 c-3 -8 -6 -5 -6 6 -1
11 2 17 5 13 3 -3 4 -12 1 -19z m1413 7 c0 -8 -4 -15 -10 -15 -5 0 -10 7 -10
15 0 8 5 15 10 15 6 0 10 -7 10 -15z m-2573 -17 c-3 -8 -6 -5 -6 6 -1 11 2 17
5 13 3 -3 4 -12 1 -19z m2623 12 c0 -5 -7 -10 -15 -10 -8 0 -15 5 -15 10 0 6
7 10 15 10 8 0 15 -4 15 -10z m122 -2 c-9 -9 -15 -9 -24 0 -9 9 -7 12 12 12
19 0 21 -3 12 -12z m126 1 c-2 -6 -8 -10 -13 -10 -5 0 -11 4 -13 10 -2 6 4 11
13 11 9 0 15 -5 13 -11z m42 1 c0 -5 -4 -10 -9 -10 -6 0 -13 5 -16 10 -3 6 1
10 9 10 9 0 16 -4 16 -10z m-1670 -20 c0 -5 -4 -10 -10 -10 -5 0 -10 5 -10 10
0 6 5 10 10 10 6 0 10 -4 10 -10z m1020 6 c0 -2 -18 -6 -40 -8 -22 -2 -40 0
-40 4 0 5 18 8 40 8 22 0 40 -2 40 -4z m70 -6 c0 -5 -14 -10 -31 -10 -17 0
-28 4 -24 10 3 6 17 10 31 10 13 0 24 -4 24 -10z m1330 3 c0 -5 -5 -15 -10
-23 -8 -12 -10 -11 -10 8 0 12 5 22 10 22 6 0 10 -3 10 -7z m66 -20 c-10 -10
-19 5 -10 18 6 11 8 11 12 0 2 -7 1 -15 -2 -18z m-2821 -11 c-3 -3 -11 0 -18
7 -9 10 -8 11 6 5 10 -3 15 -9 12 -12z m-427 -14 c2 -11 -6 -22 -22 -29 -34
-16 -76 2 -76 31 0 19 5 21 47 18 36 -2 49 -7 51 -20z m78 11 c9 -16 -12 -33
-31 -25 -14 5 -15 9 -5 21 15 18 26 19 36 4z m-603 -16 c-3 -7 -10 -13 -15
-13 -6 0 -5 -6 2 -15 9 -11 10 -15 0 -15 -7 0 -3 -11 9 -26 12 -16 20 -40 20
-58 -2 -26 -2 -27 -6 -6 -6 41 -26 71 -55 86 -22 12 -76 14 -257 14 l-229 -1
10 -30 c15 -45 5 -43 -14 2 l-17 40 247 -3 c136 -2 254 -7 263 -11 13 -6 16
-2 14 20 -1 21 3 29 16 29 9 0 15 -6 12 -13z m2330 -24 c-7 -7 -12 -3 -15 16
-5 25 -4 25 10 11 12 -11 13 -19 5 -27z m1627 37 c0 -3 -4 -8 -10 -11 -5 -3
-10 -1 -10 4 0 6 5 11 10 11 6 0 10 -2 10 -4z m-1475 -16 c3 -5 1 -10 -4 -10
-6 0 -11 5 -11 10 0 6 2 10 4 10 3 0 8 -4 11 -10z m655 1 c0 -12 -20 -25 -27
-18 -7 7 6 27 18 27 5 0 9 -4 9 -9z m240 -1 c0 -5 -4 -10 -10 -10 -5 0 -10 5
-10 10 0 6 5 10 10 10 6 0 10 -4 10 -10z m-2660 -15 c0 -8 -9 -15 -20 -15 -20
0 -26 11 -13 23 12 13 33 7 33 -8z m1517 9 c-3 -3 -12 -4 -19 -1 -8 3 -5 6 6
6 11 1 17 -2 13 -5z m1516 -14 c6 -23 -1 -25 -26 -6 -14 11 -15 15 -5 19 22 9
26 8 31 -13z m87 10 c0 -5 -4 -10 -10 -10 -5 0 -10 5 -10 10 0 6 5 10 10 10 6
0 10 -4 10 -10z m172 -22 c-9 -9 -15 -9 -24 0 -10 10 -10 15 2 22 20 12 38 -6
22 -22z m68 12 c0 -11 -4 -20 -10 -20 -5 0 -10 2 -10 4 0 2 -3 11 -6 20 -4 11
-1 16 10 16 9 0 16 -8 16 -20z m-1650 0 c0 -5 -4 -10 -10 -10 -5 0 -10 5 -10
10 0 6 5 10 10 10 6 0 10 -4 10 -10z m875 -19 c-6 -5 -25 10 -25 20 0 5 6 4
14 -3 8 -7 12 -15 11 -17z m60 20 c7 -12 -12 -24 -25 -16 -11 7 -4 25 10 25 5
0 11 -4 15 -9z m47 -6 c0 -5 -5 -11 -11 -13 -6 -2 -11 4 -11 13 0 9 5 15 11
13 6 -2 11 -8 11 -13z m46 3 c-2 -6 -10 -14 -16 -16 -7 -2 -10 2 -6 12 7 18
28 22 22 4z m232 8 c0 -11 -19 -15 -25 -6 -3 5 1 10 9 10 9 0 16 -2 16 -4z
m220 -11 c0 -8 -6 -15 -14 -15 -8 0 -16 7 -20 15 -4 10 1 15 14 15 11 0 20 -7
20 -15z m-1610 -15 c0 -5 -7 -10 -16 -10 -8 0 -12 5 -9 10 3 6 10 10 16 10 5
0 9 -4 9 -10z m4393 -58 l27 -28 -35 -34 c-38 -37 -49 -31 -13 7 l21 23 -21
23 c-12 13 -22 26 -22 30 0 14 17 6 43 -21z m-4223 -2 c0 -5 -2 -10 -4 -10 -3
0 -8 5 -11 10 -3 6 -1 10 4 10 6 0 11 -4 11 -10z m-2966 -26 c3 -8 2 -12 -4
-9 -6 3 -10 10 -10 16 0 14 7 11 14 -7z m3806 6 c0 -5 -5 -10 -11 -10 -5 0 -7
5 -4 10 3 6 8 10 11 10 2 0 4 -4 4 -10z m54 -6 c3 -9 4 -20 0 -25 -3 -5 2 -9
10 -9 9 0 16 8 16 19 0 11 4 22 9 25 11 7 21 -16 16 -40 -2 -11 -5 -44 -6 -74
l-2 -55 -6 55 c-3 30 -9 54 -13 53 -5 -2 -11 -3 -15 -3 -5 0 -6 -56 -4 -125 2
-80 -1 -125 -7 -125 -13 0 -30 239 -23 313 2 13 19 7 25 -9z m-996 -1 c-10 -2
-28 -2 -40 0 -13 2 -5 4 17 4 22 1 32 -1 23 -4z m1096 -80 c7 -106 7 -216 0
-222 -16 -16 -24 41 -24 167 0 158 15 193 24 55z m144 73 c7 -4 10 -12 6 -17
-3 -6 -6 -71 -6 -145 l1 -134 -51 0 -50 0 5 115 c2 64 7 119 11 122 4 4 -4 13
-16 20 -22 11 -22 12 -3 13 17 1 17 3 -5 12 l-25 11 30 7 c35 9 86 7 103 -4z
m354 -4 c24 2 59 -1 78 -8 32 -11 35 -16 36 -51 l1 -38 -4 38 c-4 35 -7 38
-31 35 -27 -3 -27 -5 -32 -88 l-4 -85 -6 84 c-5 84 -5 85 -35 93 -51 14 -55 7
-55 -92 0 -58 -4 -89 -10 -85 -5 3 -10 44 -10 90 0 48 -5 87 -10 90 -8 5 -7
11 1 21 9 11 15 11 25 3 8 -6 33 -9 56 -7z m-213 -39 c-1 -53 -6 -49 -11 10
-2 20 0 37 4 37 4 0 8 -21 7 -47z m58 -35 c-2 -18 -4 -6 -4 27 0 33 2 48 4 33
2 -15 2 -42 0 -60z m-552 34 c-3 -3 -11 0 -18 7 -9 10 -8 11 6 5 10 -3 15 -9
12 -12z m-909 -39 c-11 -20 -15 -23 -16 -10 0 11 -5 16 -12 12 -7 -4 -2 3 11
14 30 27 37 21 17 -16z m1611 15 c-3 -8 -6 -5 -6 6 -1 11 2 17 5 13 3 -3 4
-12 1 -19z m-707 -88 l-7 -75 -1 90 c-1 53 2 84 7 75 5 -8 5 -49 1 -90z
m-2980 59 c0 -5 -17 -8 -37 -5 -21 3 -44 5 -50 5 -7 1 -13 4 -13 9 0 4 22 5
50 4 27 -2 50 -8 50 -13z m77 4 c-22 -4 -26 -7 -17 -18 6 -7 20 -11 30 -8 26
7 26 -13 0 -27 -16 -8 -20 -8 -20 4 0 7 -11 17 -24 20 -13 3 -26 13 -30 21 -4
12 3 15 42 14 30 -1 37 -3 19 -6z m89 -10 c13 -17 13 -17 14 0 0 15 11 17 96
17 62 0 93 -4 89 -10 -4 -6 -12 -7 -18 -4 -8 5 -8 3 1 -7 22 -24 13 -31 -15
-10 -24 20 -28 20 -44 5 -16 -14 -18 -14 -28 3 -10 15 -10 14 -5 -9 4 -18 2
-28 -5 -28 -6 0 -11 7 -11 15 0 10 -10 15 -30 15 -16 0 -30 -5 -30 -11 0 -8
-4 -8 -15 1 -8 6 -19 9 -24 6 -5 -4 -9 3 -8 14 2 25 15 26 33 3z m284 6 c11
-7 7 -9 -18 -5 -19 2 -36 7 -40 10 -10 10 42 6 58 -5z m2764 -14 c-4 -8 -8
-15 -10 -15 -2 0 -4 7 -4 15 0 8 4 15 10 15 5 0 7 -7 4 -15z m-2754 -28 c13
-5 13 -6 0 -6 -18 -1 -40 18 -40 34 0 5 6 3 13 -6 7 -9 19 -18 27 -22z m-740
1 l0 -21 -337 6 c-186 4 -398 7 -470 7 -112 0 -133 2 -133 15 0 13 59 15 470
15 l470 0 0 -22z m230 0 c0 -13 -32 -6 -37 9 -3 7 3 9 16 6 12 -3 21 -10 21
-15z m380 -1 c11 -5 9 -6 -4 -4 -11 1 -21 9 -23 17 -3 10 -2 11 4 4 4 -6 15
-14 23 -17z m2578 1 c4 -22 -12 -23 -33 -2 -18 18 -33 11 -18 -8 5 -7 10 -23
11 -36 1 -18 -3 -21 -22 -16 -12 3 -29 6 -38 7 -8 2 -23 11 -32 20 -10 9 -21
15 -26 12 -5 -3 -11 -1 -15 5 -3 5 1 10 9 10 9 0 16 4 16 9 0 11 47 19 105 17
29 -1 41 -6 43 -18z m-663 -4 c-12 -9 -21 -11 -23 -4 -5 15 -21 12 -39 -5 -8
-9 -18 -13 -21 -10 -11 11 34 34 68 34 33 0 34 0 15 -15z m-2930 -102 c-3 -3
-5 -1 -5 5 0 16 -49 10 -55 -6 -3 -7 0 -21 7 -30 11 -14 11 -14 -3 -4 -12 10
-18 10 -27 1 -16 -16 -15 -29 1 -27 22 3 37 -1 37 -8 0 -10 -56 -10 -66 -1 -4
4 -1 15 7 24 9 11 10 19 3 21 -5 2 -9 17 -8 34 2 32 14 54 14 26 0 -17 11 -22
23 -10 4 3 2 12 -4 20 -19 22 -1 15 21 -9 17 -18 23 -20 29 -9 5 7 7 23 5 35
-3 11 2 3 11 -18 8 -22 13 -42 10 -44z m4065 13 c0 -37 -4 -65 -10 -65 -6 0
-10 28 -10 65 0 37 4 65 10 65 6 0 10 -28 10 -65z m-447 25 c-7 -28 -13 -25
-13 6 0 14 4 23 9 20 5 -3 7 -15 4 -26z m-2828 10 c3 -5 2 -10 -4 -10 -5 0
-13 5 -16 10 -3 6 -2 10 4 10 5 0 13 -4 16 -10z m2615 -45 c0 -54 -1 -55 -28
-55 -26 0 -28 2 -24 38 4 29 6 33 12 17 6 -17 9 -13 15 18 11 55 25 45 25 -18z
m2241 35 c10 -6 19 -16 19 -23 0 -8 -3 -8 -9 2 -6 9 -11 10 -15 2 -9 -14 -26
-5 -26 15 0 17 5 17 31 4z m-3918 -7 c-7 -2 -13 -11 -13 -19 0 -9 -11 -14 -31
-14 -17 0 -28 4 -24 10 3 6 15 10 26 10 10 0 19 5 19 10 0 6 8 10 18 9 10 0
12 -3 5 -6z m52 -3 c4 -6 11 -8 16 -5 5 4 9 2 9 -3 0 -5 -11 -12 -25 -14 -19
-4 -25 -1 -25 13 0 20 15 25 25 9z m1771 -78 c-11 -10 -14 3 -7 38 l6 35 3
-33 c2 -19 1 -36 -2 -40z m621 16 c-2 -13 -4 -5 -4 17 -1 22 1 32 4 23 2 -10
2 -28 0 -40z m-1088 -17 c-15 -5 -22 6 -14 19 6 9 10 9 16 -1 5 -8 4 -15 -2
-18z m-3303 -80 c5 1 16 1 24 0 12 -1 11 -4 -3 -12 -13 -7 -22 -7 -31 0 -7 6
-16 8 -20 4 -4 -4 -4 1 0 11 4 12 9 14 14 6 4 -6 11 -10 16 -9z m216 -3 c-7
-7 -12 -8 -12 -2 0 6 3 14 7 17 3 4 9 5 12 2 2 -3 -1 -11 -7 -17z m-32 2 c0
-5 -8 -10 -17 -10 -15 0 -16 2 -3 10 19 12 20 12 20 0z m160 -4 c0 -21 -23
-26 -71 -13 l-44 12 50 6 c28 3 53 7 58 7 4 1 7 -4 7 -12z m-270 -6 c0 -5 -7
-7 -15 -4 -8 4 -15 8 -15 10 0 2 7 4 15 4 8 0 15 -4 15 -10z m63 3 c-7 -2 -19
-2 -25 0 -7 3 -2 5 12 5 14 0 19 -2 13 -5z m4788 -46 c-10 -9 -11 -8 -5 6 3
10 9 15 12 12 3 -3 0 -11 -7 -18z m-4741 -53 c0 -2 -13 -4 -30 -4 -16 0 -30 4
-30 8 0 5 14 7 30 4 17 -2 30 -6 30 -8z m1050 -22 c0 10 2 10 9 0 7 -11 9 -11
14 0 3 10 16 13 40 10 25 -3 34 -8 30 -18 -5 -15 -24 -14 -35 1 -5 6 -8 6 -8
-2 0 -8 -17 -10 -52 -8 -29 1 -55 4 -58 5 -3 1 -8 2 -12 1 -5 0 -8 3 -8 8 0
16 34 18 58 4 17 -11 22 -11 22 -1z m1298 -3 c10 -14 8 -16 -18 -17 -22 0 -30
4 -30 16 0 14 2 15 10 2 8 -12 10 -12 16 3 3 10 7 17 8 15 1 -2 7 -10 14 -19z
m155 7 c16 1 27 -2 27 -9 0 -17 -155 -16 -172 1 -11 11 -3 12 45 9 37 -3 57 0
57 7 0 8 2 8 8 0 4 -6 19 -10 35 -8z m-1288 -7 c3 -4 2 -10 -4 -14 -6 -3 -11
0 -11 7 0 10 -2 10 -9 -1 -8 -13 -31 -8 -31 8 0 9 46 9 55 0z m3741 -20 c47
-28 170 -29 225 0 33 17 46 19 95 11 31 -5 59 -11 61 -14 13 -12 -46 -26 -148
-36 -124 -12 -331 2 -379 26 -25 12 -25 12 15 19 22 3 47 8 55 10 33 6 44 4
76 -16z m-4936 -7 c0 -4 -19 -9 -42 -9 -30 -2 -38 1 -28 7 18 12 70 13 70 2z
m160 -2 c0 -5 -4 -10 -10 -10 -5 0 -10 5 -10 10 0 6 5 10 10 10 6 0 10 -4 10
-10z m0 -54 c0 -3 -4 -8 -10 -11 -5 -3 -10 -1 -10 4 0 6 5 11 10 11 6 0 10 -2
10 -4z m908 -74 l3 -63 -63 3 -63 3 -3 54 c-4 65 4 72 73 69 l50 -3 3 -63z
m200 0 l3 -63 -63 3 -63 3 -3 54 c-4 65 4 72 73 69 l50 -3 3 -63z m200 1 l3
-63 -66 0 -65 0 0 59 c0 68 3 71 75 68 l50 -2 3 -62z m186 61 c12 -5 16 -21
16 -65 l0 -59 -65 0 -65 0 0 59 c0 38 4 61 13 64 18 8 83 8 101 1z m206 -59
l0 -55 -55 0 -55 0 0 55 0 55 55 0 55 0 0 -55z m470 30 c0 -20 -5 -25 -25 -25
-31 0 -32 14 -3 34 29 20 28 21 28 -9z m51 -10 c11 4 19 2 19 -4 0 -6 -11 -11
-25 -11 -21 0 -25 4 -24 28 2 24 2 24 6 4 3 -17 9 -21 24 -17z m181 0 c6 -31
-2 -37 -25 -20 -10 7 -15 19 -11 29 9 24 31 19 36 -9z m238 5 c0 -13 -7 -20
-20 -20 -19 0 -27 20 -13 33 13 14 33 6 33 -13z m-2780 -16 c0 -2 -13 -4 -30
-4 -16 0 -30 4 -30 8 0 5 14 7 30 4 17 -2 30 -6 30 -8z m-107 -1 c-7 -2 -19
-2 -25 0 -7 3 -2 5 12 5 14 0 19 -2 13 -5z m2416 -50 c0 -27 -1 -27 -9 -6 -6
15 -15 21 -25 17 -8 -3 -15 -1 -15 5 0 6 11 11 25 11 21 0 25 -5 24 -27z m63
20 c-6 -2 -10 -9 -6 -14 3 -5 -1 -9 -10 -9 -8 0 -17 -6 -19 -12 -3 -7 -6 -1
-6 15 -1 23 3 27 27 26 15 0 21 -3 14 -6z m-2975 -80 c-2 -16 -4 -5 -4 22 0
28 2 40 4 28 2 -13 2 -35 0 -50z m533 57 c0 -5 -4 -10 -9 -10 -6 0 -13 5 -16
10 -3 6 1 10 9 10 9 0 16 -4 16 -10z m2910 1 c0 -23 -72 -28 -90 -6 -11 13 -6
15 39 15 28 0 51 -4 51 -9z m216 -50 c-4 -5 0 -11 6 -14 7 -2 9 -8 5 -13 -4
-5 -12 -2 -17 6 -13 20 -12 30 1 30 5 0 8 -4 5 -9z m46 -2 c15 -8 19 -8 14 0
-4 6 0 11 8 11 19 0 21 -26 4 -33 -20 -6 -46 3 -52 19 -6 17 -1 17 26 3z m148
-14 c0 -16 -2 -17 -10 -5 -7 11 -12 12 -20 4 -14 -14 -60 -6 -60 10 0 7 17 11
45 11 38 0 45 -3 45 -20z m60 8 c0 -7 -9 -13 -20 -13 -11 0 -20 6 -20 13 0 7
9 13 20 13 11 0 20 -6 20 -13z m71 8 c7 12 12 12 30 1 11 -8 19 -10 16 -5 -3
5 3 9 13 9 10 0 16 -4 14 -8 -3 -4 2 -8 11 -8 9 0 13 5 10 10 -3 6 1 10 9 10
19 0 21 -16 5 -26 -17 -10 -60 -11 -86 -2 -15 5 -23 4 -23 -4 0 -9 -3 -9 -12
0 -8 8 -15 9 -25 1 -10 -9 -13 -7 -13 10 0 19 3 20 21 10 17 -9 23 -8 30 2z
m135 -17 c-4 -9 -9 -15 -11 -12 -3 3 -3 13 1 22 4 9 9 15 11 12 3 -3 3 -13 -1
-22z m61 6 c1 -13 -4 -16 -23 -12 -31 6 -32 30 -1 30 15 0 23 -7 24 -18z m77
11 c3 -5 -2 -15 -11 -22 -15 -12 -16 -12 -10 3 7 19 -12 21 -25 3 -4 -6 -8 -2
-8 8 0 18 44 25 54 8z m60 -3 c5 -10 7 -10 12 0 8 18 34 15 34 -4 0 -10 -6
-14 -14 -11 -7 3 -19 0 -25 -6 -8 -8 -11 -8 -11 0 0 6 -7 13 -14 16 -11 4 -13
1 -9 -10 4 -11 2 -14 -5 -9 -7 4 -12 14 -12 22 0 17 36 19 44 2z m119 -3 c-6
-17 -53 -16 -53 1 0 6 13 11 29 12 22 0 28 -3 24 -13z m45 -3 c2 -7 -6 -12
-17 -12 -21 0 -27 11 -14 24 9 9 26 2 31 -12z m45 3 c6 -6 10 -6 14 3 7 18 19
15 20 -5 2 -26 -64 -25 -71 0 -5 19 22 21 37 2z m54 -7 c-3 -8 -6 -5 -6 6 -1
11 2 17 5 13 3 -3 4 -12 1 -19z m93 8 c0 -14 -34 -28 -44 -18 -15 14 -4 32 19
32 15 0 25 -6 25 -14z m-4150 -6 c0 -5 -7 -10 -15 -10 -8 0 -15 5 -15 10 0 6
7 10 15 10 8 0 15 -4 15 -10z m47 4 c-3 -3 -12 -4 -19 -1 -8 3 -5 6 6 6 11 1
17 -2 13 -5z m2320 -16 c-3 -8 -6 -5 -6 6 -1 11 2 17 5 13 3 -3 4 -12 1 -19z
m248 12 c3 -5 1 -10 -4 -10 -6 0 -11 5 -11 10 0 6 2 10 4 10 3 0 8 -4 11 -10z
m55 -11 c0 -14 -16 -11 -29 5 -10 12 -8 13 8 9 12 -3 21 -9 21 -14z m200 -1
c0 -6 -6 -5 -15 2 -8 7 -15 14 -15 16 0 2 7 1 15 -2 8 -4 15 -11 15 -16z
m2230 -3 c0 -8 -4 -15 -10 -15 -5 0 -10 7 -10 15 0 8 5 15 10 15 6 0 10 -7 10
-15z m-5117 -42 c-13 -2 -33 -2 -45 0 -13 2 -3 4 22 4 25 0 35 -2 23 -4z m100
0 c-13 -2 -33 -2 -45 0 -13 2 -3 4 22 4 25 0 35 -2 23 -4z m-53 -63 c0 -5 -9
-6 -20 -3 -11 3 -20 9 -20 13 0 5 9 6 20 3 11 -3 20 -9 20 -13z m30 -48 c0
-13 -97 -14 -105 -2 -4 6 14 10 49 10 31 0 56 -4 56 -8z m-23 -59 c-20 -2 -52
-2 -70 0 -17 2 0 4 38 4 39 0 53 -2 32 -4z m81 -57 c3 -3 -30 -5 -74 -4 -70 1
-74 2 -29 7 55 7 94 6 103 -3z m-170 -3 c-10 -2 -26 -2 -35 0 -10 3 -2 5 17 5
19 0 27 -2 18 -5z m72 -55 c0 -5 -13 -8 -30 -8 -16 0 -30 4 -30 9 0 4 13 8 30
7 16 -1 30 -4 30 -8z m35 2 c3 -5 1 -10 -4 -10 -6 0 -11 5 -11 10 0 6 2 10 4
10 3 0 8 -4 11 -10z m160 0 c3 -5 1 -10 -4 -10 -6 0 -11 5 -11 10 0 6 2 10 4
10 3 0 8 -4 11 -10z m-191 -60 c-7 -7 -19 -7 -35 -1 -23 9 -22 10 11 10 23 1
31 -2 24 -9z m46 6 c0 -3 -4 -8 -10 -11 -5 -3 -10 -1 -10 4 0 6 5 11 10 11 6
0 10 -2 10 -4z m-387 -53 c-7 -2 -21 -2 -30 0 -10 3 -4 5 12 5 17 0 24 -2 18
-5z m125 0 c-10 -2 -28 -2 -40 0 -13 2 -5 4 17 4 22 1 32 -1 23 -4z m140 0
c-10 -2 -26 -2 -35 0 -10 3 -2 5 17 5 19 0 27 -2 18 -5z m75 0 c-7 -2 -21 -2
-30 0 -10 3 -4 5 12 5 17 0 24 -2 18 -5z m360 0 c-18 -2 -48 -2 -65 0 -18 2
-4 4 32 4 36 0 50 -2 33 -4z m97 -97 l0 -63 -41 -7 c-23 -4 -46 -3 -53 2 -6 5
-22 6 -36 2 -14 -3 -33 -2 -42 4 -9 6 -21 7 -25 3 -4 -5 -1 -12 7 -17 22 -14
2 -28 -45 -32 -24 -2 -39 -8 -38 -15 3 -16 -63 -26 -182 -27 -55 0 -83 -2 -62
-4 20 -2 37 -7 37 -13 0 -13 -87 -11 -96 2 -3 6 -15 9 -25 6 -11 -3 -19 -3
-19 0 0 13 37 32 62 33 15 0 39 5 55 11 15 6 51 12 78 14 106 9 180 17 188 22
14 9 -4 23 -30 23 -47 0 -152 23 -146 32 3 6 -3 8 -13 7 -11 -2 -24 0 -30 3
-15 10 -58 17 -159 28 -116 12 -215 31 -215 42 0 4 187 8 415 8 l415 0 0 -64z
m-873 48 c-3 -3 -12 -4 -19 -1 -8 3 -5 6 6 6 11 1 17 -2 13 -5z m-593 -79 c3
-29 2 -44 -3 -37 -6 11 -10 10 -15 -3 -3 -9 -4 -21 0 -26 3 -5 0 -9 -7 -9 -7
0 -9 8 -4 23 4 12 10 41 12 65 6 53 8 51 17 -13z m533 -27 c-3 -8 -6 -5 -6 6
-1 11 2 17 5 13 3 -3 4 -12 1 -19z m423 6 c0 -2 -7 -4 -15 -4 -8 0 -15 4 -15
10 0 5 7 7 15 4 8 -4 15 -8 15 -10z m-423 -46 c-3 -8 -6 -5 -6 6 -1 11 2 17 5
13 3 -3 4 -12 1 -19z m757 -57 c3 -4 29 -12 58 -16 30 -5 44 -10 33 -12 -11
-3 -24 -9 -29 -13 -4 -5 -33 -6 -63 -3 -46 5 -195 -5 -335 -23 -21 -2 -38 0
-38 5 0 5 28 12 63 16 34 3 82 8 106 11 51 5 62 11 41 24 -10 6 0 10 30 13 88
7 129 7 134 -2z m-501 -18 c-7 -2 -21 -2 -30 0 -10 3 -4 5 12 5 17 0 24 -2 18
-5z m398 -54 c17 -19 26 -21 91 -16 40 4 96 7 123 8 50 2 50 2 -15 9 l-65 7
70 -1 c63 -1 70 -3 73 -22 3 -18 -5 -22 -61 -32 -79 -15 -151 -15 -214 -2 -26
6 -72 12 -100 13 -29 2 -56 6 -59 10 -4 4 -13 2 -21 -4 -8 -8 -13 -8 -13 -1 0
6 -11 9 -25 7 -14 -1 -28 1 -31 6 -5 9 17 13 141 27 44 5 82 10 84 10 2 1 12
-8 22 -19z m119 11 c13 -9 13 -10 0 -11 -42 -3 -106 4 -114 12 -13 12 95 12
114 -1z m-596 -22 c28 0 29 -1 9 -9 -13 -4 -23 -13 -23 -19 0 -5 -12 -10 -27
-10 -20 0 -24 3 -14 9 8 5 11 16 8 26 -5 10 -3 14 5 9 6 -4 25 -7 42 -6z
m-1724 -79 c0 -5 -4 -8 -9 -5 -13 8 -34 -21 -27 -39 3 -8 12 -15 21 -15 8 0
15 -5 15 -11 0 -17 -31 -6 -46 16 -12 18 -11 24 2 43 16 23 44 30 44 11z m688
-29 c1 -30 -4 -40 -19 -45 -42 -14 -53 25 -16 62 31 30 35 29 35 -17z m490 12
c14 11 15 10 9 -5 -4 -10 -2 -28 4 -40 12 -22 12 -22 -9 -4 -20 18 -20 18 -25
0 -3 -10 -5 5 -4 32 0 28 2 40 4 27 4 -20 7 -21 21 -10z m1299 22 c-3 -3 -12
-4 -19 -1 -8 3 -5 6 6 6 11 1 17 -2 13 -5z m-2152 -35 c-4 -11 -1 -27 7 -36
11 -14 11 -15 -2 -11 -9 3 -16 20 -18 42 -2 26 0 36 8 31 6 -4 8 -16 5 -26z
m221 -15 c0 -19 -2 -31 -6 -27 -11 12 -20 59 -13 67 11 10 17 -3 19 -40z m319
15 c-4 -11 -1 -27 7 -36 11 -14 11 -15 -2 -11 -16 5 -29 45 -22 65 7 21 23 3
17 -18z m-797 -12 c4 -33 -22 -47 -45 -25 -12 13 -13 20 -3 37 15 30 44 23 48
-12z m66 17 c9 -23 7 -44 -3 -44 -5 0 -7 9 -4 20 4 14 0 20 -11 20 -9 0 -16
-8 -16 -20 0 -11 -4 -20 -10 -20 -5 0 -7 7 -5 15 3 8 7 22 10 30 6 20 31 19
39 -1z m42 -19 c-1 -37 -10 -46 -20 -19 -10 27 -7 54 7 54 9 0 13 -12 13 -35z
m62 4 c3 -29 -24 -47 -42 -29 -8 8 -6 15 7 24 18 14 24 32 7 21 -5 -3 -10 -1
-10 5 0 24 35 4 38 -21z m52 22 c0 -5 -8 -12 -17 -16 -17 -6 -17 -7 1 -21 11
-7 17 -17 13 -20 -8 -9 -37 15 -37 30 0 14 20 36 32 36 4 0 8 -4 8 -9z m190
-2 c0 -5 -4 -7 -10 -4 -17 10 -11 -7 7 -20 9 -7 13 -17 9 -23 -9 -15 -36 -16
-36 -1 0 5 5 7 10 4 17 -10 11 7 -7 20 -9 7 -13 17 -9 23 9 15 36 16 36 1z
m130 -4 c17 -20 8 -50 -14 -50 -27 0 -43 29 -27 49 17 20 25 20 41 1z m136
-11 c7 -26 -9 -47 -31 -41 -17 6 -18 37 -1 37 9 0 16 5 16 11 0 5 -4 7 -10 4
-5 -3 -10 -1 -10 4 0 23 30 10 36 -15z m192 -7 c4 -33 -22 -47 -45 -25 -12 13
-13 20 -3 37 15 30 44 23 48 -12z m129 -2 c1 -22 0 -24 -4 -7 -5 26 -29 24
-27 -2 1 -9 -2 -16 -7 -16 -5 0 -9 9 -9 20 0 11 -4 20 -10 20 -5 0 -10 -9 -10
-20 0 -11 -4 -20 -10 -20 -15 0 -12 48 3 53 6 2 26 3 42 3 26 -1 30 -6 32 -31z
m58 -1 c0 -22 -5 -29 -19 -29 -28 0 -31 24 -4 34 18 8 19 10 5 10 -10 1 -15 6
-12 12 12 19 30 3 30 -27z m123 24 c18 -18 15 -28 -9 -28 -11 0 -17 -5 -14
-10 4 -6 11 -8 16 -5 5 4 9 1 9 -5 0 -16 -31 -8 -43 12 -8 12 -7 21 2 32 16
19 23 20 39 4z m76 -13 c12 33 18 7 6 -29 -7 -22 -18 -36 -28 -36 -14 0 -15 2
-3 9 12 8 13 14 3 36 -16 35 -15 56 2 26 12 -21 14 -21 20 -6z m80 2 c13 -21
-15 -53 -38 -44 -19 8 -21 38 -4 55 15 15 28 11 42 -11z m-1014 -6 c0 -11 5
-23 10 -26 6 -4 10 5 10 19 0 14 5 26 10 26 6 0 10 -11 10 -24 0 -28 -26 -42
-46 -25 -16 13 -19 49 -4 49 6 0 10 -9 10 -19z m404 5 c4 9 9 15 11 12 8 -8
-24 -78 -36 -78 -8 0 -8 4 -1 13 7 8 7 18 2 27 -6 8 -10 22 -10 30 1 12 3 11
14 -3 13 -16 14 -16 20 -1z m651 -27 c6 0 13 10 17 23 6 22 6 22 7 -3 1 -16
-5 -29 -15 -33 -23 -9 -34 2 -33 32 1 26 1 26 7 4 4 -13 12 -23 17 -23z m1032
35 c-3 -3 -12 -4 -19 -1 -8 3 -5 6 6 6 11 1 17 -2 13 -5z m-49 -11 c-10 -2
-26 -2 -35 0 -10 3 -2 5 17 5 19 0 27 -2 18 -5z m-389 -29 c10 -9 -85 -3 -99
6 -10 6 3 7 40 3 30 -3 57 -7 59 -9z m-259 -14 c0 -5 -4 -10 -10 -10 -5 0 -10
5 -10 10 0 6 5 10 10 10 6 0 10 -4 10 -10z m-1780 -61 c0 -5 -10 -9 -22 -9
-19 0 -20 2 -8 10 12 8 12 10 -5 10 -16 0 -17 2 -5 10 15 9 40 -4 40 -21z m64
5 c3 -8 1 -14 -3 -14 -5 0 -11 6 -14 13 -3 9 -7 9 -20 -2 -15 -11 -17 -11 -17
2 0 28 43 29 54 1z m66 -3 c0 -13 -2 -14 -9 -2 -8 12 -12 12 -25 2 -13 -11
-16 -11 -16 2 0 8 6 17 13 20 19 7 37 -4 37 -22z m58 17 c18 -18 15 -33 -4
-17 -13 10 -17 10 -24 -1 -5 -8 -12 -11 -16 -7 -7 7 13 37 25 37 4 0 12 -5 19
-12z m102 -3 c7 -9 10 -19 6 -22 -4 -4 -12 -1 -17 7 -8 11 -12 12 -16 3 -6
-18 -23 -16 -23 1 0 13 13 23 31 25 4 1 12 -6 19 -14z m43 9 c8 -8 -3 -34 -14
-34 -5 0 -9 9 -9 20 0 19 11 26 23 14z m99 -12 c6 -6 8 -15 4 -19 -4 -4 -12
-1 -17 7 -9 12 -11 13 -16 1 -4 -11 -7 -11 -13 0 -7 10 -11 10 -24 0 -13 -11
-16 -11 -16 2 0 8 5 17 11 19 21 7 60 1 71 -10z m68 -13 c0 -5 -11 -9 -25 -9
-27 0 -32 9 -13 28 12 12 38 -1 38 -19z m66 -6 c-4 -4 -12 -1 -17 7 -8 11 -12
12 -16 3 -7 -18 -23 -16 -23 1 0 8 8 16 18 19 19 4 50 -19 38 -30z m37 31 c8
-8 -3 -34 -14 -34 -5 0 -9 9 -9 20 0 19 11 26 23 14z m-373 -19 c0 -8 -4 -15
-10 -15 -5 0 -10 7 -10 15 0 8 5 15 10 15 6 0 10 -7 10 -15z m1767 -1 c-3 -3
-12 -4 -19 -1 -8 3 -5 6 6 6 11 1 17 -2 13 -5z m375 -1 c-62 -2 -161 -2 -220
0 -59 1 -8 3 113 3 121 0 169 -2 107 -3z m-801 -290 c13 -15 12 -15 -8 -4 -24
12 -29 21 -14 21 5 0 15 -7 22 -17z"/>
<path d="M3168 4418 c-60 -93 -80 -128 -76 -138 2 -6 27 30 56 80 29 49 56 90
61 90 8 0 3 -38 -18 -130 -9 -39 -8 -62 2 -49 2 2 18 23 35 45 38 49 43 72 6
29 l-25 -30 7 45 c20 116 3 137 -48 58z"/>
<path d="M3405 4400 l-40 -7 43 -2 c23 0 42 4 42 9 0 6 -1 9 -2 9 -2 -1 -21
-5 -43 -9z"/>
<path d="M3269 4398 c-1 -2 -2 -23 -3 -48 -5 -72 18 -98 54 -65 15 14 18 14
30 0 17 -20 55 -19 125 5 70 24 69 24 61 5 -10 -27 22 -28 66 -2 l43 25 28
-24 c28 -24 77 -33 77 -14 0 6 -13 10 -29 10 -20 0 -35 8 -48 26 l-19 26 -49
-31 c-46 -29 -72 -34 -47 -9 32 32 8 34 -77 5 -98 -33 -127 -31 -117 8 8 32 4
31 -35 -5 -18 -16 -37 -26 -42 -23 -5 3 -7 30 -5 59 3 30 1 54 -4 54 -4 0 -8
-1 -9 -2z"/>
<path d="M3430 3896 c0 -2 7 -6 15 -10 8 -3 15 -1 15 4 0 6 -7 10 -15 10 -8 0
-15 -2 -15 -4z"/>
<path d="M3532 3875 c0 -16 2 -22 5 -12 2 9 2 23 0 30 -3 6 -5 -1 -5 -18z"/>
<path d="M3381 3874 c0 -11 3 -14 6 -6 3 7 2 16 -1 19 -3 4 -6 -2 -5 -13z"/>
<path d="M3401 3874 c0 -11 3 -14 6 -6 3 7 2 16 -1 19 -3 4 -6 -2 -5 -13z"/>
<path d="M3335 3870 c-3 -5 -1 -10 4 -10 6 0 11 5 11 10 0 6 -2 10 -4 10 -3 0
-8 -4 -11 -10z"/>
<path d="M3436 3858 c3 -5 10 -6 15 -3 13 9 11 12 -6 12 -8 0 -12 -4 -9 -9z"/>
<path d="M2690 3438 l0 -198 726 0 c399 0 723 4 720 8 -3 5 1 9 9 9 8 0 15 -4
15 -9 0 -4 15 -8 33 -8 17 0 28 4 22 8 -5 4 -10 12 -10 17 0 6 -13 38 -30 72
l-29 63 -671 2 -670 3 -3 38 c-6 71 -48 67 654 67 349 0 634 2 634 4 0 2 -11
28 -25 58 l-25 53 -675 5 -675 5 0 -197z m333 -185 c-7 -2 -19 -2 -25 0 -7 3
-2 5 12 5 14 0 19 -2 13 -5z m730 0 c-7 -2 -21 -2 -30 0 -10 3 -4 5 12 5 17 0
24 -2 18 -5z"/>
<path d="M2876 3453 c-6 -14 -5 -15 5 -6 7 7 10 15 7 18 -3 3 -9 -2 -12 -12z"/>
<path d="M2851 3082 c-15 -28 -14 -37 3 -23 11 9 16 9 21 1 5 -8 10 -9 18 -1
7 7 15 7 22 1 8 -7 11 -3 10 13 -2 31 -35 36 -35 5 l-1 -23 -13 24 c-13 24
-14 24 -25 3z"/>
<path d="M2940 3075 c0 -14 4 -25 9 -25 4 0 6 11 3 25 -2 14 -6 25 -8 25 -2 0
-4 -11 -4 -25z"/>
<path d="M2981 3079 c-7 -12 -10 -23 -7 -26 3 -3 8 2 12 11 6 15 7 15 21 -1
13 -16 13 -15 2 7 -6 14 -12 26 -13 27 -1 1 -8 -7 -15 -18z"/>
<path d="M3020 3091 c0 -6 5 -13 10 -16 6 -4 7 -11 4 -17 -4 -7 -2 -8 5 -4 8
6 9 12 2 20 -6 7 -8 16 -4 19 3 4 1 7 -5 7 -7 0 -12 -4 -12 -9z"/>
<path d="M3077 3086 c-8 -20 20 -43 35 -28 14 14 3 42 -16 42 -7 0 -16 -6 -19
-14z m33 -11 c0 -8 -4 -15 -10 -15 -5 0 -10 7 -10 15 0 8 5 15 10 15 6 0 10
-7 10 -15z"/>
<path d="M3133 3074 c0 -17 2 -22 8 -13 4 7 6 16 3 20 -2 4 2 10 8 12 9 4 7 6
-3 6 -11 1 -16 -7 -16 -25z"/>
<path d="M3200 3090 c10 -6 11 -10 3 -10 -7 0 -13 -5 -13 -11 0 -8 5 -8 15 1
20 17 19 30 -2 30 -15 0 -16 -2 -3 -10z"/>
<path d="M3231 3073 c0 -16 3 -22 6 -15 4 10 8 10 19 1 10 -8 18 -9 27 0 8 6
16 8 20 5 3 -3 3 4 0 16 -6 21 -6 21 -16 4 -15 -28 -15 -28 -31 -11 -12 12
-13 17 -3 20 7 3 5 6 -5 6 -13 1 -18 -6 -17 -26z"/>
<path d="M3325 3090 c-3 -6 1 -7 9 -4 18 7 21 14 7 14 -6 0 -13 -4 -16 -10z"/>
<path d="M3370 3080 c0 -11 2 -20 4 -20 2 0 6 9 9 20 3 11 1 20 -4 20 -5 0 -9
-9 -9 -20z"/>
<path d="M3428 3088 c-7 -17 1 -38 14 -38 7 0 7 4 -1 13 -8 10 -7 17 1 25 8 8
9 12 1 12 -6 0 -13 -6 -15 -12z"/>
<path d="M3470 3075 c0 -14 3 -25 8 -25 4 0 7 11 7 25 0 14 -3 25 -7 25 -5 0
-8 -11 -8 -25z"/>
<path d="M3401 3074 c0 -11 3 -14 6 -6 3 7 2 16 -1 19 -3 4 -6 -2 -5 -13z"/>
<path d="M3327 3059 c7 -7 15 -10 18 -7 3 3 -2 9 -12 12 -14 6 -15 5 -6 -5z"/>
<path d="M2850 2823 l0 -38 105 3 105 3 0 35 0 34 -105 0 -105 0 0 -37z m178
2 c13 -12 -14 -19 -83 -22 -69 -2 -75 -1 -75 18 0 18 5 19 77 14 42 -2 78 -7
81 -10z"/>
<path d="M2850 2725 l0 -35 115 0 115 0 0 35 0 35 -115 0 -115 0 0 -35z m114
10 c98 -3 93 -2 99 -17 5 -14 -51 -17 -71 -4 -7 4 -12 4 -12 -1 0 -4 -26 -8
-57 -8 -53 0 -58 2 -58 22 0 11 4 19 9 16 4 -3 45 -7 90 -8z"/>
<path d="M2850 2628 l0 -38 130 0 130 0 0 38 0 37 -130 0 -130 0 0 -37z m181
12 c46 1 57 -2 61 -17 4 -16 0 -18 -34 -15 -21 2 -38 9 -38 16 0 8 -2 8 -8 -1
-4 -6 -39 -13 -77 -15 -65 -3 -70 -1 -70 17 0 18 6 20 55 17 30 -1 80 -2 111
-2z"/>
<path d="M2850 2528 l0 -38 161 0 160 0 -3 36 -3 35 -158 2 -157 2 0 -37z
m268 12 c24 0 33 -3 30 -12 -3 -9 -43 -14 -144 -18 -134 -5 -139 -4 -139 15 0
19 6 20 110 17 60 -2 125 -3 143 -2z"/>
<path d="M6925 4351 c-3 -5 -1 -12 5 -16 12 -7 30 2 30 16 0 12 -27 12 -35 0z"/>
<path d="M10500 3899 c0 -5 9 -9 20 -9 11 0 20 2 20 4 0 2 -9 6 -20 9 -11 3
-20 1 -20 -4z"/>
<path d="M10658 3863 c6 -2 18 -2 25 0 6 3 1 5 -13 5 -14 0 -19 -2 -12 -5z"/>
<path d="M9888 3853 c6 -2 18 -2 25 0 6 3 1 5 -13 5 -14 0 -19 -2 -12 -5z"/>
<path d="M9998 3853 c6 -2 18 -2 25 0 6 3 1 5 -13 5 -14 0 -19 -2 -12 -5z"/>
<path d="M10469 3766 c-2 -2 -2 -30 -1 -61 4 -50 6 -55 23 -50 12 4 19 2 19
-6 0 -7 10 -3 23 9 13 12 35 22 50 22 20 0 27 5 27 20 0 22 -15 27 -24 8 -4
-7 -5 -4 -3 7 3 15 -2 21 -16 22 -10 1 -27 9 -36 17 -16 15 -52 21 -62 12z"/>
<path d="M9990 3750 l-25 -8 27 -1 c15 -1 30 4 33 9 7 11 0 11 -35 0z"/>
<path d="M9835 3742 c-9 -10 -5 -82 5 -82 6 0 10 5 10 11 0 5 5 7 12 3 8 -5 5
-11 -11 -18 -19 -8 -22 -16 -19 -64 2 -30 6 -56 10 -58 4 -3 14 12 23 31 8 20
20 35 27 33 20 -7 19 -23 -2 -46 l-21 -22 26 0 c18 0 25 5 25 20 0 25 16 26
29 3 9 -16 14 -14 48 22 24 25 27 29 7 12 l-31 -28 -36 21 c-72 43 -80 94 -19
134 15 10 19 15 9 12 -11 -3 -16 -2 -12 4 12 19 35 10 35 -12 0 -18 2 -20 10
-8 16 26 -9 41 -67 39 -29 -1 -55 -5 -58 -7z"/>
<path d="M10660 3661 c-20 -6 -22 -8 -8 -13 9 -4 22 -1 28 8 7 8 11 14 9 13
-2 -1 -15 -4 -29 -8z"/>
<path d="M10733 3637 c-17 -7 -21 -15 -17 -37 5 -22 0 -31 -23 -48 -24 -17
-33 -19 -42 -9 -10 9 -12 8 -9 -7 1 -11 6 -19 11 -18 4 1 30 2 57 2 47 0 50 2
50 25 0 31 -17 33 -23 3 -4 -23 -4 -23 -6 -1 0 12 6 29 15 37 8 9 14 27 12 40
-3 20 -6 22 -25 13z"/>
<path d="M10124 3566 c27 -26 30 -27 45 -10 15 17 15 17 -1 5 -11 -8 -18 -9
-23 -2 -3 6 -16 16 -28 22 -17 9 -15 5 7 -15z"/>
<path d="M10318 3552 c9 -10 19 -17 21 -16 6 5 -20 34 -30 34 -5 0 -1 -8 9
-18z"/>
<path d="M10100 3520 c0 -5 5 -10 11 -10 5 0 7 5 4 10 -3 6 -8 10 -11 10 -2 0
-4 -4 -4 -10z"/>
<path d="M10005 3400 c-3 -11 -11 -20 -16 -20 -5 0 -9 -8 -9 -18 0 -11 -16
-25 -45 -37 -38 -17 -45 -24 -45 -49 0 -25 3 -27 24 -22 15 4 26 1 29 -7 4 -9
7 -9 18 1 16 15 46 16 51 1 2 -6 14 -8 31 -4 20 5 27 13 27 30 0 25 -19 46
-21 23 -2 -17 -18 61 -18 89 -1 12 6 23 17 26 11 3 7 5 -10 6 -18 1 -29 -5
-33 -19z m-25 -80 c0 -5 -4 -10 -10 -10 -5 0 -10 5 -10 10 0 6 5 10 10 10 6 0
10 -4 10 -10z"/>
<path d="M10100 3301 c0 -25 6 -27 13 -6 4 8 2 17 -3 20 -6 4 -10 -3 -10 -14z"/>
<path d="M10180 3200 c0 -6 7 -10 15 -10 8 0 15 2 15 4 0 2 -7 6 -15 10 -8 3
-15 1 -15 -4z"/>
<path d="M5172 4031 c1 -20 6 -31 15 -31 10 0 13 9 11 27 -4 38 -27 42 -26 4z"/>
<path d="M5223 4053 c9 -2 23 -2 30 0 6 3 -1 5 -18 5 -16 0 -22 -2 -12 -5z"/>
<path d="M5380 4045 c0 -11 7 -14 25 -9 15 4 32 1 41 -6 10 -9 18 -10 26 -2
18 18 -2 32 -48 32 -33 0 -44 -4 -44 -15z"/>
<path d="M6617 4033 c-4 -3 -7 -17 -7 -30 0 -22 3 -24 48 -21 43 3 47 5 50 31
3 26 1 27 -41 27 -24 0 -47 -3 -50 -7z"/>
<path d="M6804 4031 c-2 -2 -4 -15 -4 -28 0 -21 4 -23 51 -23 49 0 50 1 47 27
-3 25 -7 28 -46 28 -24 0 -46 -2 -48 -4z"/>
<path d="M6730 4005 c0 -18 5 -25 20 -25 15 0 20 7 20 25 0 18 -5 25 -20 25
-15 0 -20 -7 -20 -25z"/>
<path d="M7060 4005 c0 -23 4 -25 45 -25 41 0 45 2 45 25 0 23 -4 25 -45 25
-41 0 -45 -2 -45 -25z"/>
<path d="M6610 3945 c0 -23 3 -25 50 -25 47 0 50 2 50 25 0 23 -3 25 -50 25
-47 0 -50 -2 -50 -25z"/>
<path d="M6727 3940 c-5 -24 -12 -30 -32 -30 -25 0 -26 -2 -23 -47 3 -45 5
-48 37 -54 30 -6 41 -2 79 27 25 19 49 34 53 34 5 0 9 5 9 11 0 5 -4 8 -9 4
-5 -3 -12 -1 -16 5 -4 6 7 10 28 10 32 0 33 2 33 35 -1 34 -2 35 -38 35 -27 0
-38 -4 -38 -15 0 -25 4 -30 20 -27 13 2 13 2 0 -7 -8 -6 -31 -11 -50 -11 -23
0 -30 3 -22 9 18 11 11 45 -9 49 -11 2 -18 -7 -22 -28z"/>
<path d="M6782 3945 c0 -16 2 -22 5 -12 2 9 2 23 0 30 -3 6 -5 -1 -5 -18z"/>
<path d="M5601 3861 c-15 -27 -16 -27 32 -29 36 -2 39 0 22 9 -11 6 -25 18
-32 26 -10 13 -13 12 -22 -6z"/>
<path d="M5508 3856 c-10 -7 -18 -16 -18 -20 0 -10 38 -7 46 5 11 18 -10 29
-28 15z"/>
<path d="M7280 3822 c0 -7 5 -12 11 -12 5 0 7 -4 4 -10 -3 -5 2 -10 12 -10 10
0 36 -3 57 -7 28 -4 37 -3 32 5 -4 7 6 15 26 22 27 8 20 9 -43 6 -48 -3 -81 0
-88 7 -8 8 -11 8 -11 -1z"/>
<path d="M5503 3803 c20 -3 27 -9 23 -19 -8 -21 18 -17 39 6 18 20 17 20 -36
19 -30 -1 -42 -4 -26 -6z"/>
<path d="M5590 3800 c0 -6 14 -13 30 -17 24 -4 28 -8 19 -19 -9 -11 -6 -14 15
-14 26 0 35 14 16 23 -6 3 -5 4 2 3 7 -2 21 1 32 6 15 8 16 12 5 19 -20 12
-119 11 -119 -1z"/>
<path d="M5690 3760 c0 -5 5 -10 10 -10 6 0 10 5 10 10 0 6 -4 10 -10 10 -5 0
-10 -4 -10 -10z"/>
<path d="M6330 3754 c0 -7 14 -15 33 -18 17 -2 62 -9 98 -15 37 -6 148 -11
248 -11 150 0 181 2 181 14 0 8 8 17 18 20 9 2 -1 4 -23 3 -22 0 -46 3 -54 7
-7 5 -92 10 -189 12 -135 4 -177 2 -184 -8 -6 -10 -10 -10 -15 -2 -12 17 -113
15 -113 -2z"/>
<path d="M7005 3763 c-22 -2 -47 -6 -55 -9 -13 -4 -13 -6 0 -14 13 -8 13 -10
-1 -10 -9 0 -22 -7 -29 -15 -11 -13 -8 -15 16 -16 16 -1 33 -1 37 0 4 1 16 -3
25 -8 14 -7 21 -5 30 10 11 18 10 19 -23 13 -23 -3 -35 -1 -35 6 0 7 15 11 38
10 72 -4 82 -1 82 20 0 21 1 21 -85 13z"/>
<path d="M7120 3740 c0 -16 7 -20 30 -20 l30 0 -20 20 c-11 11 -24 20 -30 20
-5 0 -10 -9 -10 -20z"/>
<path d="M7200 3756 c0 -2 8 -10 18 -17 15 -13 16 -12 3 4 -13 16 -21 21 -21
13z"/>
<path d="M7265 3742 c-3 -8 -3 -17 0 -22 2 -4 -46 -7 -107 -7 -110 0 -126 -5
-116 -34 2 -7 11 -5 23 7 13 14 20 15 23 6 2 -8 8 -10 15 -4 7 5 39 6 72 3 80
-8 121 -1 117 22 -3 19 37 24 54 7 6 -6 10 -3 11 10 1 11 -2 18 -8 15 -5 -4
-9 -2 -9 3 0 16 -69 10 -75 -6z"/>
<path d="M7370 3751 c0 -15 20 -24 20 -9 0 8 5 6 11 -5 11 -19 29 -14 29 9 0
9 -11 14 -30 14 -16 0 -30 -4 -30 -9z"/>
<path d="M5580 3719 c-25 -4 -66 -8 -92 -8 -27 -1 -48 -5 -48 -11 0 -14 174
-1 220 16 l35 13 -35 -1 c-19 0 -55 -4 -80 -9z"/>
<path d="M5706 3715 c-11 -8 -17 -18 -13 -21 9 -10 86 -23 135 -24 l44 0 -24
29 c-20 26 -30 30 -73 30 -29 0 -58 -6 -69 -14z"/>
<path d="M5862 3701 c19 -25 31 -30 67 -30 24 -1 41 2 38 5 -6 6 -117 54 -125
54 -2 0 7 -13 20 -29z"/>
<path d="M6163 3723 c-20 -7 -15 -17 17 -36 31 -19 56 -19 229 -1 64 7 52 20
-24 29 -125 13 -134 14 -138 2 -3 -9 -7 -9 -19 0 -11 10 -17 10 -27 0 -8 -8
-14 -9 -19 -1 -4 6 -13 9 -19 7z"/>
<path d="M6060 3710 c0 -5 5 -10 11 -10 5 0 7 5 4 10 -3 6 -8 10 -11 10 -2 0
-4 -4 -4 -10z"/>
<path d="M7480 3716 c0 -2 9 -6 20 -9 11 -3 18 -1 14 4 -5 9 -34 13 -34 5z"/>
<path d="M5513 3674 c-18 -8 -33 -18 -33 -23 0 -34 105 -48 122 -16 6 10 17
13 32 9 15 -3 27 1 37 12 13 16 12 17 -14 10 -17 -4 -26 -3 -23 3 6 8 -15 21
-35 21 -5 0 -7 -12 -4 -27 6 -27 6 -27 -9 -9 -9 11 -16 23 -16 28 0 11 -20 9
-57 -8z"/>
<path d="M6457 3666 c-4 -10 0 -14 12 -13 11 1 17 7 14 14 -7 17 -20 17 -26
-1z"/>
<path d="M6233 3653 c9 -2 23 -2 30 0 6 3 -1 5 -18 5 -16 0 -22 -2 -12 -5z"/>
<path d="M6990 3650 c0 -5 5 -10 10 -10 6 0 10 5 10 10 0 6 -4 10 -10 10 -5 0
-10 -4 -10 -10z"/>
<path d="M5843 3643 c15 -2 39 -2 55 0 15 2 2 4 -28 4 -30 0 -43 -2 -27 -4z"/>
<path d="M5963 3643 c15 -2 37 -2 50 0 12 2 0 4 -28 4 -27 0 -38 -2 -22 -4z"/>
<path d="M6064 3641 c5 -8 56 -3 56 5 0 2 -14 4 -31 4 -16 0 -28 -4 -25 -9z"/>
<path d="M6141 3646 c10 -9 79 -14 74 -5 -4 5 -22 9 -42 9 -20 0 -34 -2 -32
-4z"/>
<path d="M7626 4095 c4 -8 8 -15 10 -15 2 0 4 7 4 15 0 8 -4 15 -10 15 -5 0
-7 -7 -4 -15z"/>
<path d="M8230 3826 c0 -2 7 -9 15 -16 13 -11 14 -10 9 4 -5 14 -24 23 -24 12z"/>
<path d="M8268 3823 c7 -3 16 -2 19 1 4 3 -2 6 -13 5 -11 0 -14 -3 -6 -6z"/>
<path d="M8148 3773 c6 -2 18 -2 25 0 6 3 1 5 -13 5 -14 0 -19 -2 -12 -5z"/>
<path d="M8050 3751 c0 -19 51 -33 99 -29 36 4 56 1 69 -9 16 -14 16 -14 0 -9
-10 3 -18 1 -18 -5 0 -8 18 -9 52 -6 34 4 58 2 67 -6 11 -9 13 -9 8 0 -4 7 0
16 10 22 14 8 3 10 -44 11 -35 0 -63 4 -63 10 0 10 -34 17 -122 24 -32 3 -58
1 -58 -3z"/>
<path d="M8020 3725 c0 -9 9 -15 25 -15 28 0 34 15 9 24 -25 10 -34 7 -34 -9z"/>
<path d="M8340 3690 c0 -5 5 -10 10 -10 6 0 10 5 10 10 0 6 -4 10 -10 10 -5 0
-10 -4 -10 -10z"/>
<path d="M8861 3564 c0 -11 3 -14 6 -6 3 7 2 16 -1 19 -3 4 -6 -2 -5 -13z"/>
<path d="M5891 3032 c-11 -20 -4 -62 10 -62 5 0 9 6 9 14 0 8 6 17 13 20 9 5
9 7 -1 12 -10 5 -10 9 -1 20 9 11 8 14 -4 14 -9 0 -21 -8 -26 -18z"/>
<path d="M6080 3014 c0 -37 18 -52 48 -38 15 7 14 8 -5 11 -26 5 -32 23 -8 23
23 0 18 14 -10 27 -24 11 -25 10 -25 -23z"/>
<path d="M6308 3023 c-19 -5 -26 -43 -8 -43 6 0 10 7 10 15 0 21 18 19 23 -2
4 -14 5 -13 6 4 1 25 -7 31 -31 26z"/>
<path d="M6272 3000 c0 -14 2 -19 5 -12 2 6 2 18 0 25 -3 6 -5 1 -5 -13z"/>
<path d="M6493 3038 c7 -20 -9 -25 -16 -5 -3 7 -6 7 -6 1 -1 -6 7 -21 18 -33
l19 -21 -2 29 c-1 16 -5 33 -10 38 -5 5 -7 1 -3 -9z"/>
<path d="M6679 3033 c-12 -14 -12 -16 0 -8 11 6 13 2 9 -19 -3 -14 -1 -26 3
-26 5 0 9 5 9 11 0 5 4 8 9 5 5 -3 14 1 22 10 10 12 9 18 -4 31 -15 15 -16 15
-10 -5 3 -13 1 -22 -6 -22 -7 0 -9 5 -6 10 3 6 1 10 -5 10 -6 0 -8 5 -5 10 10
16 -1 11 -16 -7z"/>
<path d="M4993 2243 c9 -2 23 -2 30 0 6 3 -1 5 -18 5 -16 0 -22 -2 -12 -5z"/>
<path d="M4740 2220 c0 -5 5 -10 11 -10 5 0 7 5 4 10 -3 6 -8 10 -11 10 -2 0
-4 -4 -4 -10z"/>
<path d="M5035 2190 c-3 -5 3 -10 14 -10 12 0 21 5 21 10 0 6 -6 10 -14 10 -8
0 -18 -4 -21 -10z"/>
<path d="M3487 2014 c-9 -9 4 -35 14 -28 5 3 9 12 9 20 0 14 -12 19 -23 8z"/>
<path d="M2874 2016 c-4 -10 -2 -22 4 -28 8 -8 13 -7 18 6 4 10 2 22 -4 28 -8
8 -13 7 -18 -6z"/>
<path d="M3045 1990 c4 -6 11 -8 16 -5 14 9 11 15 -7 15 -8 0 -12 -5 -9 -10z"/>
<path d="M3422 2004 c4 -21 22 -23 26 -1 2 10 -3 17 -13 17 -10 0 -15 -6 -13
-16z"/>
<path d="M3550 1990 c0 -5 5 -10 10 -10 6 0 10 5 10 10 0 6 -4 10 -10 10 -5 0
-10 -4 -10 -10z"/>
<path d="M3742 2004 c4 -21 22 -23 26 -1 2 10 -3 17 -13 17 -10 0 -15 -6 -13
-16z"/>
<path d="M3940 1989 c0 -5 5 -7 10 -4 6 3 10 8 10 11 0 2 -4 4 -10 4 -5 0 -10
-5 -10 -11z"/>
<path d="M4202 2004 c4 -21 22 -23 26 -1 2 10 -3 17 -13 17 -10 0 -15 -6 -13
-16z"/>
<path d="M5535 5650 c-3 -5 -1 -10 4 -10 6 0 11 5 11 10 0 6 -2 10 -4 10 -3 0
-8 -4 -11 -10z"/>
<path d="M4921 4584 c0 -11 3 -14 6 -6 3 7 2 16 -1 19 -3 4 -6 -2 -5 -13z"/>
<path d="M10760 2649 c0 -36 2 -39 15 -25 8 8 15 23 15 34 0 11 -7 22 -15 26
-12 4 -15 -3 -15 -35z"/>
<path d="M10990 2680 c0 -5 7 -7 15 -4 8 4 15 8 15 10 0 2 -7 4 -15 4 -8 0
-15 -4 -15 -10z"/>
<path d="M9980 2650 c0 -5 7 -7 15 -4 8 4 15 8 15 10 0 2 -7 4 -15 4 -8 0 -15
-4 -15 -10z"/>
<path d="M10170 2634 c0 -8 5 -12 10 -9 6 4 8 11 5 16 -9 14 -15 11 -15 -7z"/>
<path d="M9800 2616 c0 -14 -4 -36 -10 -50 -9 -25 -8 -26 26 -26 29 0 35 3 30
16 -3 9 -6 27 -6 40 0 16 -6 24 -17 24 -15 0 -16 2 -3 10 13 8 12 10 -2 10
-12 0 -18 -8 -18 -24z"/>
<path d="M10746 2593 c-3 -4 -6 -15 -6 -25 0 -10 -5 -18 -12 -18 -8 0 -9 -3
-2 -10 5 -5 32 -7 61 -3 l52 6 -16 24 c-9 13 -18 22 -20 19 -3 -3 -15 -1 -28
4 -13 5 -26 6 -29 3z m58 -28 c-7 -16 -24 -21 -24 -6 0 8 7 13 27 20 1 1 0 -6
-3 -14z"/>
<path d="M9967 2574 c-15 -15 -6 -34 16 -34 17 0 19 -2 7 -9 -8 -6 -17 -8 -20
-6 -5 3 -6 -169 -1 -197 2 -13 69 -9 73 5 3 6 2 64 -1 127 l-6 115 -30 3 c-17
2 -34 0 -38 -4z m39 -69 c-21 -16 -32 -13 -21 4 3 6 14 11 23 11 15 -1 15 -2
-2 -15z m24 -25 c0 -5 -7 -10 -15 -10 -8 0 -15 5 -15 10 0 6 7 10 15 10 8 0
15 -4 15 -10z"/>
<path d="M10964 2563 c-11 -19 -11 -293 1 -312 3 -6 26 -11 50 -11 60 0 66 14
59 137 -3 54 -6 108 -5 121 0 12 -4 22 -9 22 -6 0 -10 -11 -10 -25 0 -26 -26
-46 -49 -37 -7 2 -17 -2 -22 -9 -4 -7 -11 -10 -15 -6 -4 3 -1 13 5 21 9 10 9
16 1 21 -15 9 19 47 37 41 7 -3 15 -1 18 4 4 6 15 10 27 10 14 0 18 5 14 16
-3 9 -6 18 -6 20 0 2 -19 4 -43 4 -29 0 -45 -5 -53 -17z"/>
<path d="M11238 2543 l-48 -4 0 -57 c1 -52 2 -55 15 -38 8 11 13 27 10 37 -5
16 16 41 39 45 20 4 61 23 46 22 -8 -1 -36 -3 -62 -5z"/>
<path d="M9772 2468 c1 -43 4 -48 24 -48 17 0 22 4 18 15 -7 17 -3 18 21 9 13
-5 14 -8 3 -15 -10 -7 -9 -9 5 -9 14 0 17 9 17 48 l0 47 -44 0 -45 0 1 -47z
m78 12 c0 -5 -4 -10 -10 -10 -5 0 -10 5 -10 10 0 6 5 10 10 10 6 0 10 -4 10
-10z m-40 -10 c0 -5 -4 -10 -9 -10 -6 0 -13 5 -16 10 -3 6 1 10 9 10 9 0 16
-4 16 -10z"/>
<path d="M10729 2508 c0 -7 -3 -24 -5 -37 -2 -14 -2 -22 1 -19 3 3 7 15 10 27
2 11 7 26 10 31 3 6 1 10 -4 10 -6 0 -11 -6 -12 -12z"/>
<path d="M10233 2460 c0 -25 2 -35 4 -22 2 12 2 32 0 45 -2 12 -4 2 -4 -23z"/>
<path d="M10754 2452 c3 -6 -1 -12 -10 -14 -14 -2 -17 -16 -18 -71 -1 -47 3
-67 12 -67 7 0 12 -12 12 -29 0 -33 17 -43 60 -34 l30 6 -2 98 -2 99 -33 -6
c-24 -5 -33 -3 -31 6 2 7 -3 15 -11 18 -8 2 -11 0 -7 -6z m63 -47 c0 -7 -8
-10 -19 -7 -20 5 -17 19 5 19 7 0 14 -6 14 -12z"/>
<path d="M11226 2445 c-4 -11 0 -14 17 -11 12 3 24 5 27 5 6 2 -23 21 -31 21
-4 0 -9 -7 -13 -15z"/>
<path d="M9782 2360 c0 -14 2 -19 5 -12 2 6 2 18 0 25 -3 6 -5 1 -5 -13z"/>
<path d="M11252 2340 c-27 -31 -30 -39 -16 -44 9 -3 20 -4 25 0 5 3 9 1 9 -5
0 -7 8 -7 23 -2 12 5 22 13 21 20 -1 6 -2 25 -2 41 -2 40 -20 37 -60 -10z"/>
<path d="M9777 2297 c-3 -8 -3 -18 0 -21 10 -10 81 -7 88 4 4 6 -8 10 -27 10
-19 0 -39 5 -45 11 -7 7 -12 6 -16 -4z"/>
<path d="M9590 2281 c0 -6 17 -7 38 -4 51 8 53 13 4 13 -23 0 -42 -4 -42 -9z"/>
<path d="M11190 2280 c0 -5 5 -10 11 -10 5 0 7 5 4 10 -3 6 -8 10 -11 10 -2 0
-4 -4 -4 -10z"/>
<path d="M9564 2249 c-3 -5 21 -9 52 -9 32 0 55 2 53 4 -9 9 -99 13 -105 5z"/>
<path d="M10155 2250 c7 -12 75 -13 75 -2 0 5 -18 9 -41 10 -24 1 -38 -2 -34
-8z"/>
<path d="M11200 2248 c0 -22 100 -22 108 0 3 9 -11 12 -52 10 -31 -2 -56 -6
-56 -10z"/>
<path d="M7620 1828 c0 -32 23 -89 38 -97 9 -4 62 -16 117 -26 92 -17 98 -19
70 -29 -35 -12 -1578 -15 -1690 -4 -65 7 -71 6 -72 -11 -1 -15 8 -20 50 -25
29 -3 433 -6 900 -6 834 0 847 0 867 20 20 20 33 20 2369 20 1352 0 2352 4
2355 9 3 5 25 12 48 15 24 4 48 10 55 14 6 4 -1097 7 -2451 7 -1912 0 -2468 3
-2487 12 -13 7 -37 14 -54 15 -27 3 -30 6 -33 44 -2 33 -8 43 -25 48 -35 9
-57 7 -57 -6z"/>
<path d="M12648 1823 c6 -2 18 -2 25 0 6 3 1 5 -13 5 -14 0 -19 -2 -12 -5z"/>
</g>
</svg>
